<svg class="main-svg" xmlns="http://www.w3.org/2000/svg" xmlns:xlink="http://www.w3.org/1999/xlink" width="600" height="800" style="" viewBox="0 0 600 800"><rect x="0" y="0" width="600" height="800" style="fill: rgb(255, 255, 255); fill-opacity: 1;"/><defs id="defs-0cc9fb"><g class="clips"/><g class="gradients"/><g class="patterns"/></defs><g class="bglayer"/><g class="layer-below"><g class="imagelayer"/><g class="shapelayer"/></g><g class="cartesianlayer"/><g class="polarlayer"/><g class="smithlayer"/><g class="ternarylayer"/><g class="geolayer"/><g class="funnelarealayer"/><g class="pielayer"/><g class="iciclelayer"/><g class="treemaplayer"/><g class="sunburstlayer"/><g class="glimages"/><g class="sankey" transform="translate(80,100)matrix(1 0 0 1 0 0)" style="box-sizing: content-box; position: absolute; left: 0px; shape-rendering: geometricprecision; pointer-events: none;"><g class="sankey-links" style="fill: none;"><path class="sankey-link" d="M20,297.88752573528814C220,297.88752573528814 220,527.1722849439035 420,527.1722849439035L420,527.1722849552772C220,527.1722849552772 220,297.88752574666194 20,297.88752574666194Z" style="stroke: rgb(0, 0, 0); stroke-opacity: 0.2; fill: rgb(0, 0, 0); fill-opacity: 0.2; stroke-width: 1; opacity: 1;"/><path class="sankey-link" d="M20,289.7174261630812C220,289.7174261630812 220,88.16855609390471 420,88.16855609390471L420,90.23509671884035C220,90.23509671884035 220,291.78396678801687 20,291.78396678801687Z" style="stroke: rgb(68, 68, 68); stroke-opacity: 1; fill: rgb(0, 0, 0); fill-opacity: 0.2; stroke-width: 0; opacity: 1;"/><path class="sankey-link" d="M20,297.8875246688712C220,297.8875246688712 220,421.30092906225843 420,421.30092906225843L420,421.300929557513C220,421.300929557513 220,297.88752516412575 20,297.88752516412575Z" style="stroke: rgb(0, 0, 0); stroke-opacity: 0.2; fill: rgb(0, 0, 0); fill-opacity: 0.2; stroke-width: 1; opacity: 1;"/><path class="sankey-link" d="M20,297.88752516412586C220,297.88752516412586 220,446.24305968234756 420,446.24305968234756L420,446.2430602535099C220,446.2430602535099 220,297.8875257352882 20,297.8875257352882Z" style="stroke: rgb(0, 0, 0); stroke-opacity: 0.2; fill: rgb(0, 0, 0); fill-opacity: 0.2; stroke-width: 1; opacity: 1;"/><path class="sankey-link" d="M20,297.8834936207386C220,297.8834936207386 220,397.51189490858343 420,397.51189490858343L420,397.5159259567161C220,397.5159259567161 220,297.88752466887127 20,297.88752466887127Z" style="stroke: rgb(0, 0, 0); stroke-opacity: 0.2; fill: rgb(0, 0, 0); fill-opacity: 0.2; stroke-width: 1; opacity: 1;"/><path class="sankey-link" d="M20,291.78396678801687C220,291.78396678801687 220,145.2264676908152 420,145.2264676908152L420,147.53771198522386C220,147.53771198522386 220,294.0952110824255 20,294.0952110824255Z" style="stroke: rgb(68, 68, 68); stroke-opacity: 1; fill: rgb(0, 0, 0); fill-opacity: 0.2; stroke-width: 0; opacity: 1;"/><path class="sankey-link" d="M20,297.88348663129443C220,297.88348663129443 220,371.0538514415414 420,371.0538514415414L420,371.05385843098543C220,371.05385843098543 220,297.8834936207385 20,297.8834936207385Z" style="stroke: rgb(0, 0, 0); stroke-opacity: 0.2; fill: rgb(0, 0, 0); fill-opacity: 0.2; stroke-width: 1; opacity: 1;"/><path class="sankey-link" d="M20,283.52440968010154C220,283.52440968010154 220,25.60785664731039 420,25.60785664731039L420,30.331269143498947C220,30.331269143498947 220,288.2478221762901 20,288.2478221762901Z" style="stroke: rgb(68, 68, 68); stroke-opacity: 1; fill: rgb(0, 0, 0); fill-opacity: 0.2; stroke-width: 0; opacity: 1;"/><path class="sankey-link" d="M20,295.5242934007538C220,295.5242934007538 220,229.3732287612987 420,229.3732287612987L420,230.2183931993837C220,230.2183931993837 220,296.3694578388388 20,296.3694578388388Z" style="stroke: rgb(0, 0, 0); stroke-opacity: 0.2; fill: rgb(0, 0, 0); fill-opacity: 0.2; stroke-width: 1; opacity: 1;"/><path class="sankey-link" d="M20,296.3694578388388C220,296.3694578388388 220,262.77665279412605 420,262.77665279412605L420,262.77665327306175C220,262.77665327306175 220,296.3694583177745 20,296.3694583177745Z" style="stroke: rgb(0, 0, 0); stroke-opacity: 0.2; fill: rgb(0, 0, 0); fill-opacity: 0.2; stroke-width: 1; opacity: 1;"/><path class="sankey-link" d="M20,294.09521108242546C220,294.09521108242546 220,187.36945450801724 420,187.36945450801724L420,188.79853682634555C220,188.79853682634555 220,295.5242934007537 20,295.5242934007537Z" style="stroke: rgb(68, 68, 68); stroke-opacity: 1; fill: rgb(0, 0, 0); fill-opacity: 0.2; stroke-width: 0; opacity: 1;"/><path class="sankey-link" d="M20,296.3694583177745C220,296.3694583177745 220,294.31077762522506 420,294.31077762522506L420,295.824805938745C220,295.824805938745 220,297.88348663129443 20,297.88348663129443Z" style="stroke: rgb(68, 68, 68); stroke-opacity: 1; fill: rgb(0, 0, 0); fill-opacity: 0.2; stroke-width: 0; opacity: 1;"/><path class="sankey-link" d="M20,288.24782217629013C220,288.24782217629013 220,59.254629643632725 420,59.254629643632725L420,60.724233630423825C220,60.724233630423825 220,289.7174261630812 20,289.7174261630812Z" style="stroke: rgb(68, 68, 68); stroke-opacity: 1; fill: rgb(0, 0, 0); fill-opacity: 0.2; stroke-width: 0; opacity: 1;"/><path class="sankey-link" d="M20,297.88752574666194C80,297.88752574666194 80,549.9953776665182 140,549.9953776665182L140,550.0979905341817C80,550.0979905341817 80,297.99013861432536 20,297.99013861432536Z" style="stroke: rgb(0, 0, 0); stroke-opacity: 0.2; fill: rgb(0, 0, 0); fill-opacity: 0.2; stroke-width: 1; opacity: 1;"/><path class="sankey-link" d="M160,564.5225028079285C290,564.5225028079285 290,527.1900597319279 420,527.1900597319279L420,527.2054106243631C290,527.2054106243631 290,564.5378537003637 160,564.5378537003637Z" style="stroke: rgb(0, 0, 0); stroke-opacity: 0.2; fill: rgb(0, 0, 0); fill-opacity: 0.2; stroke-width: 1; opacity: 1;"/><path class="sankey-link" d="M160,564.5378537003638C220,564.5378537003638 220,555.4836515846549 280,555.4836515846549L280,557.3027441693195C220,557.3027441693195 220,566.3569462850284 160,566.3569462850284Z" style="stroke: rgb(68, 68, 68); stroke-opacity: 1; fill: rgb(0, 0, 0); fill-opacity: 0.2; stroke-width: 0; opacity: 1;"/><path class="sankey-link" d="M160,550.1356694621215C290,550.1356694621215 290,119.46149693976658 420,119.46149693976658L420,120.90709819028497C290,120.90709819028497 290,551.5812707126399 160,551.5812707126399Z" style="stroke: rgb(68, 68, 68); stroke-opacity: 1; fill: rgb(0, 0, 0); fill-opacity: 0.2; stroke-width: 0; opacity: 1;"/><path class="sankey-link" d="M160,563.5563487474191C290,563.5563487474191 290,477.5179323052509 420,477.5179323052509L420,477.96003132221375C290,477.96003132221375 290,563.9984477643819 160,563.9984477643819Z" style="stroke: rgb(0, 0, 0); stroke-opacity: 0.2; fill: rgb(0, 0, 0); fill-opacity: 0.2; stroke-width: 1; opacity: 1;"/><path class="sankey-link" d="M160,563.998447764382C290,563.998447764382 290,503.69245832608334 420,503.69245832608334L420,504.2165133696299C290,504.2165133696299 290,564.5225028079287 160,564.5225028079287Z" style="stroke: rgb(0, 0, 0); stroke-opacity: 0.2; fill: rgb(0, 0, 0); fill-opacity: 0.2; stroke-width: 1; opacity: 1;"/><path class="sankey-link" d="M160,561.5652110853492C290,561.5652110853492 290,422.7599365674556 420,422.7599365674556L420,423.3970922332114C290,423.3970922332114 290,562.2023667511052 160,562.2023667511052Z" style="stroke: rgb(0, 0, 0); stroke-opacity: 0.2; fill: rgb(0, 0, 0); fill-opacity: 0.2; stroke-width: 1; opacity: 1;"/><path class="sankey-link" d="M160,562.2023667511053C290,562.2023667511053 290,449.80432175395595 420,449.80432175395595L420,451.15830375026997C290,451.15830375026997 290,563.5563487474192 160,563.5563487474192Z" style="stroke: rgb(68, 68, 68); stroke-opacity: 1; fill: rgb(0, 0, 0); fill-opacity: 0.2; stroke-width: 0; opacity: 1;"/><path class="sankey-link" d="M160,561.1446045386986C290,561.1446045386986 290,323.2127372101379 420,323.2127372101379L420,323.21273723387446C290,323.21273723387446 290,561.1446045624352 160,561.1446045624352Z" style="stroke: rgb(0, 0, 0); stroke-opacity: 0.2; fill: rgb(0, 0, 0); fill-opacity: 0.2; stroke-width: 1; opacity: 1;"/><path class="sankey-link" d="M160,561.5428975556363C290,561.5428975556363 290,398.4815508338737 420,398.4815508338737L420,398.5038643635869C290,398.5038643635869 290,561.5652110853493 160,561.5652110853493Z" style="stroke: rgb(0, 0, 0); stroke-opacity: 0.2; fill: rgb(0, 0, 0); fill-opacity: 0.2; stroke-width: 1; opacity: 1;"/><path class="sankey-link" d="M160,551.5812707126398C290,551.5812707126398 290,159.93991280474472 420,159.93991280474472L420,162.33235467759192C290,162.33235467759192 290,553.9737125854871 160,553.9737125854871Z" style="stroke: rgb(68, 68, 68); stroke-opacity: 1; fill: rgb(0, 0, 0); fill-opacity: 0.2; stroke-width: 0; opacity: 1;"/><path class="sankey-link" d="M160,561.1628544397968C290,561.1628544397968 290,374.3145992810862 420,374.3145992810862L420,374.6946423969257C290,374.6946423969257 290,561.5428975556363 160,561.5428975556363Z" style="stroke: rgb(0, 0, 0); stroke-opacity: 0.2; fill: rgb(0, 0, 0); fill-opacity: 0.2; stroke-width: 1; opacity: 1;"/><path class="sankey-link" d="M160,549.8799748683501C290,549.8799748683501 290,36.35164550971946 420,36.35164550971946L420,36.404633127629424C290,36.404633127629424 290,549.9329624862602 160,549.9329624862602Z" style="stroke: rgb(0, 0, 0); stroke-opacity: 0.2; fill: rgb(0, 0, 0); fill-opacity: 0.2; stroke-width: 1; opacity: 1;"/><path class="sankey-link" d="M160,556.8369837231395C290,556.8369837231395 290,237.97159708863705 420,237.97159708863705L420,239.96284914017411C290,239.96284914017411 290,558.8282357746765 160,558.8282357746765Z" style="stroke: rgb(68, 68, 68); stroke-opacity: 1; fill: rgb(0, 0, 0); fill-opacity: 0.2; stroke-width: 0; opacity: 1;"/><path class="sankey-link" d="M160,558.8282357746765C290,558.8282357746765 290,269.81356629789394 420,269.81356629789394L420,271.4100661834279C290,271.4100661834279 290,560.4247356602103 160,560.4247356602103Z" style="stroke: rgb(68, 68, 68); stroke-opacity: 1; fill: rgb(0, 0, 0); fill-opacity: 0.2; stroke-width: 0; opacity: 1;"/><path class="sankey-link" d="M160,566.5037805175165C290,566.5037805175165 290,574.6344558623884 420,574.6344558623884L420,574.7327265609147C290,574.7327265609147 290,566.6020512160427 160,566.6020512160427Z" style="stroke: rgb(0, 0, 0); stroke-opacity: 0.2; fill: rgb(0, 0, 0); fill-opacity: 0.2; stroke-width: 1; opacity: 1;"/><path class="sankey-link" d="M160,561.1446045624351C290,561.1446045624351 290,348.23853686550797 420,348.23853686550797L420,348.25678674286974C290,348.25678674286974 290,561.1628544397969 160,561.1628544397969Z" style="stroke: rgb(0, 0, 0); stroke-opacity: 0.2; fill: rgb(0, 0, 0); fill-opacity: 0.2; stroke-width: 1; opacity: 1;"/><path class="sankey-link" d="M160,553.973712585487C290,553.973712585487 290,202.03163862098504 420,202.03163862098504L420,204.89490975863734C290,204.89490975863734 290,556.8369837231394 160,556.8369837231394Z" style="stroke: rgb(68, 68, 68); stroke-opacity: 1; fill: rgb(0, 0, 0); fill-opacity: 0.2; stroke-width: 0; opacity: 1;"/><path class="sankey-link" d="M160,560.4247356602104C290,560.4247356602104 290,296.9295438450265 420,296.9295438450265L420,297.6494127235145C290,297.6494127235145 290,561.1446045386983 160,561.1446045386983Z" style="stroke: rgb(0, 0, 0); stroke-opacity: 0.2; fill: rgb(0, 0, 0); fill-opacity: 0.2; stroke-width: 1; opacity: 1;"/><path class="sankey-link" d="M160,566.3569462850282C290,566.3569462850282 290,551.6753909536999 420,551.6753909536999L420,551.822225186188C290,551.822225186188 290,566.5037805175164 160,566.5037805175164Z" style="stroke: rgb(0, 0, 0); stroke-opacity: 0.2; fill: rgb(0, 0, 0); fill-opacity: 0.2; stroke-width: 1; opacity: 1;"/><path class="sankey-link" d="M160,549.9329624862601C290,549.9329624862601 290,61.86200754616796 420,61.86200754616796L420,62.06471452202936C290,62.06471452202936 290,550.1356694621215 160,550.1356694621215Z" style="stroke: rgb(0, 0, 0); stroke-opacity: 0.2; fill: rgb(0, 0, 0); fill-opacity: 0.2; stroke-width: 1; opacity: 1;"/><path class="sankey-link" d="M20,468.8969015307568C220,468.8969015307568 220,114.17726175362448 420,114.17726175362448L420,117.69987665332393C220,117.69987665332393 220,472.4195164304562 20,472.4195164304562Z" style="stroke: rgb(68, 68, 68); stroke-opacity: 1; fill: rgb(0, 0, 0); fill-opacity: 0.2; stroke-width: 0; opacity: 1;"/><path class="sankey-link" d="M20,475.3926720649295C220,475.3926720649295 220,476.70321700717165 420,476.70321700717165L420,476.7176009438436C220,476.7176009438436 220,475.40705600160146 20,475.40705600160146Z" style="stroke: rgb(0, 0, 0); stroke-opacity: 0.2; fill: rgb(0, 0, 0); fill-opacity: 0.2; stroke-width: 1; opacity: 1;"/><path class="sankey-link" d="M20,475.40705600160146C220,475.40705600160146 220,501.9155702985457 420,501.9155702985457L420,502.1820926328273C220,502.1820926328273 220,475.67357833588306 20,475.67357833588306Z" style="stroke: rgb(0, 0, 0); stroke-opacity: 0.2; fill: rgb(0, 0, 0); fill-opacity: 0.2; stroke-width: 1; opacity: 1;"/><path class="sankey-link" d="M20,475.3753437668353C220,475.3753437668353 220,421.87513081338403 420,421.87513081338403L420,421.89245910900564C220,421.89245910900564 220,475.3926720624569 20,475.3926720624569Z" style="stroke: rgb(0, 0, 0); stroke-opacity: 0.2; fill: rgb(0, 0, 0); fill-opacity: 0.2; stroke-width: 1; opacity: 1;"/><path class="sankey-link" d="M20,475.3926720624568C220,475.3926720624568 220,446.60754353387756 420,446.60754353387756L420,446.60754353635014C220,446.60754353635014 220,475.3926720649294 20,475.3926720649294Z" style="stroke: rgb(0, 0, 0); stroke-opacity: 0.2; fill: rgb(0, 0, 0); fill-opacity: 0.2; stroke-width: 1; opacity: 1;"/><path class="sankey-link" d="M20,472.4195164304561C220,472.4195164304561 220,157.13914564083447 420,157.13914564083447L420,157.69167555097212C220,157.69167555097212 220,472.97204634059375 20,472.97204634059375Z" style="stroke: rgb(0, 0, 0); stroke-opacity: 0.2; fill: rgb(0, 0, 0); fill-opacity: 0.2; stroke-width: 1; opacity: 1;"/><path class="sankey-link" d="M20,475.3333629920857C220,475.3333629920857 220,373.6784201997526 420,373.6784201997526L420,373.72040097450224C220,373.72040097450224 220,475.37534376683533 20,475.37534376683533Z" style="stroke: rgb(0, 0, 0); stroke-opacity: 0.2; fill: rgb(0, 0, 0); fill-opacity: 0.2; stroke-width: 1; opacity: 1;"/><path class="sankey-link" d="M20,468.88066045715584C220,468.88066045715584 220,36.33540443611862 420,36.33540443611862L420,36.3516455097195C220,36.3516455097195 220,468.89690153075674 20,468.89690153075674Z" style="stroke: rgb(0, 0, 0); stroke-opacity: 0.2; fill: rgb(0, 0, 0); fill-opacity: 0.2; stroke-width: 1; opacity: 1;"/><path class="sankey-link" d="M20,474.4207017000098C220,474.4207017000098 220,237.21096502286537 420,237.21096502286537L420,237.57424307636194C220,237.57424307636194 220,474.7839797535064 20,474.7839797535064Z" style="stroke: rgb(0, 0, 0); stroke-opacity: 0.2; fill: rgb(0, 0, 0); fill-opacity: 0.2; stroke-width: 1; opacity: 1;"/><path class="sankey-link" d="M20,474.78397975350646C220,474.78397975350646 220,267.4796592545117 420,267.4796592545117L420,267.7773724376857C220,267.7773724376857 220,475.08169293668044 20,475.08169293668044Z" style="stroke: rgb(0, 0, 0); stroke-opacity: 0.2; fill: rgb(0, 0, 0); fill-opacity: 0.2; stroke-width: 1; opacity: 1;"/><path class="sankey-link" d="M20,475.69696782360415C220,475.69696782360415 220,574.6192898848595 420,574.6192898848595L420,574.6344558623883C220,574.6344558623883 220,475.71213380113295 20,475.71213380113295Z" style="stroke: rgb(0, 0, 0); stroke-opacity: 0.2; fill: rgb(0, 0, 0); fill-opacity: 0.2; stroke-width: 1; opacity: 1;"/><path class="sankey-link" d="M20,472.97204634059386C220,472.97204634059386 220,197.63377877900626 420,197.63377877900626L420,199.0824341384223C220,199.0824341384223 220,474.42070170000983 20,474.42070170000983Z" style="stroke: rgb(68, 68, 68); stroke-opacity: 1; fill: rgb(0, 0, 0); fill-opacity: 0.2; stroke-width: 0; opacity: 1;"/><path class="sankey-link" d="M20,475.0816929366804C220,475.0816929366804 220,296.4891791351806 420,296.4891791351806L420,296.7408491905859C220,296.7408491905859 220,475.33336299208565 20,475.33336299208565Z" style="stroke: rgb(0, 0, 0); stroke-opacity: 0.2; fill: rgb(0, 0, 0); fill-opacity: 0.2; stroke-width: 1; opacity: 1;"/><path class="sankey-link" d="M20,475.67357833588306C220,475.67357833588306 220,550.0256861855577 420,550.0256861855577L420,550.0490756732787C220,550.0490756732787 220,475.6969678236041 20,475.6969678236041Z" style="stroke: rgb(0, 0, 0); stroke-opacity: 0.2; fill: rgb(0, 0, 0); fill-opacity: 0.2; stroke-width: 1; opacity: 1;"/><path class="sankey-link" d="M20,475.71213380113295C80,475.71213380113295 80,553.7574232445941 140,553.7574232445941L140,554.5228391358178C80,554.5228391358178 80,476.4775496923568 20,476.4775496923568Z" style="stroke: rgb(0, 0, 0); stroke-opacity: 0.2; fill: rgb(0, 0, 0); fill-opacity: 0.2; stroke-width: 1; opacity: 1;"/><path class="sankey-link" d="M300,555.2447449889781C360,555.2447449889781 360,527.2054106243633 420,527.2054106243633L420,527.2054211866624C360,527.2054211866624 360,555.2447555512773 300,555.2447555512773Z" style="stroke: rgb(0, 0, 0); stroke-opacity: 0.2; fill: rgb(0, 0, 0); fill-opacity: 0.2; stroke-width: 1; opacity: 1;"/><path class="sankey-link" d="M300,554.6483836791537C360,554.6483836791537 360,120.90709819028507 420,120.90709819028507L420,120.93460937800205C360,120.93460937800205 360,554.6758948668706 300,554.6758948668706Z" style="stroke: rgb(0, 0, 0); stroke-opacity: 0.2; fill: rgb(0, 0, 0); fill-opacity: 0.2; stroke-width: 1; opacity: 1;"/><path class="sankey-link" d="M300,555.0825727129812C360,555.0825727129812 360,477.96003132221375 420,477.96003132221375L420,477.9634967226089C360,477.9634967226089 360,555.0860381133765 300,555.0860381133765Z" style="stroke: rgb(0, 0, 0); stroke-opacity: 0.2; fill: rgb(0, 0, 0); fill-opacity: 0.2; stroke-width: 1; opacity: 1;"/><path class="sankey-link" d="M300,555.0860381133763C360,555.0860381133763 360,504.21651336962987 420,504.21651336962987L420,504.3752202452316C360,504.3752202452316 360,555.2447449889781 300,555.2447449889781Z" style="stroke: rgb(0, 0, 0); stroke-opacity: 0.2; fill: rgb(0, 0, 0); fill-opacity: 0.2; stroke-width: 1; opacity: 1;"/><path class="sankey-link" d="M300,554.9489400889568C360,554.9489400889568 360,423.3970922332114 420,423.3970922332114L420,423.44599498367586C360,423.44599498367586 360,554.9978428394213 300,554.9978428394213Z" style="stroke: rgb(0, 0, 0); stroke-opacity: 0.2; fill: rgb(0, 0, 0); fill-opacity: 0.2; stroke-width: 1; opacity: 1;"/><path class="sankey-link" d="M300,554.9978428394213C360,554.9978428394213 360,451.15830375026997 420,451.15830375026997L420,451.2430336238298C360,451.2430336238298 360,555.0825727129811 300,555.0825727129811Z" style="stroke: rgb(0, 0, 0); stroke-opacity: 0.2; fill: rgb(0, 0, 0); fill-opacity: 0.2; stroke-width: 1; opacity: 1;"/><path class="sankey-link" d="M300,554.6758948668709C360,554.6758948668709 360,162.33235467759192 420,162.33235467759192L420,162.39022146327136C360,162.39022146327136 360,554.7337616525502 300,554.7337616525502Z" style="stroke: rgb(0, 0, 0); stroke-opacity: 0.2; fill: rgb(0, 0, 0); fill-opacity: 0.2; stroke-width: 1; opacity: 1;"/><path class="sankey-link" d="M300,554.9287522759707C360,554.9287522759707 360,374.6946423969257 420,374.6946423969257L420,374.71483020991184C360,374.71483020991184 360,554.948940088957 300,554.948940088957Z" style="stroke: rgb(0, 0, 0); stroke-opacity: 0.2; fill: rgb(0, 0, 0); fill-opacity: 0.2; stroke-width: 1; opacity: 1;"/><path class="sankey-link" d="M300,554.8552174519547C360,554.8552174519547 360,239.9628491401741 420,239.9628491401741L420,239.97958790383112C360,239.97958790383112 360,554.8719562156117 300,554.8719562156117Z" style="stroke: rgb(0, 0, 0); stroke-opacity: 0.2; fill: rgb(0, 0, 0); fill-opacity: 0.2; stroke-width: 1; opacity: 1;"/><path class="sankey-link" d="M300,554.8719562156118C360,554.8719562156118 360,271.4100661834279 420,271.4100661834279L420,271.4660617571075C360,271.4660617571075 360,554.9279517892915 300,554.9279517892915Z" style="stroke: rgb(0, 0, 0); stroke-opacity: 0.2; fill: rgb(0, 0, 0); fill-opacity: 0.2; stroke-width: 1; opacity: 1;"/><path class="sankey-link" d="M300,554.7337616525502C360,554.7337616525502 360,204.89490975863728 420,204.89490975863728L420,205.01636555804177C360,205.01636555804177 360,554.8552174519547 300,554.8552174519547Z" style="stroke: rgb(0, 0, 0); stroke-opacity: 0.2; fill: rgb(0, 0, 0); fill-opacity: 0.2; stroke-width: 1; opacity: 1;"/><path class="sankey-link" d="M300,554.9279517892913C360,554.9279517892913 360,297.6494127235145 420,297.6494127235145L420,297.6502132101938C360,297.6502132101938 360,554.9287522759706 300,554.9287522759706Z" style="stroke: rgb(0, 0, 0); stroke-opacity: 0.2; fill: rgb(0, 0, 0); fill-opacity: 0.2; stroke-width: 1; opacity: 1;"/><path class="sankey-link" d="M300,555.2447555512772C360,555.2447555512772 360,551.6753904500385 420,551.6753904500385L420,551.6753909536999C360,551.6753909536999 360,555.2447560549385 300,555.2447560549385Z" style="stroke: rgb(0, 0, 0); stroke-opacity: 0.2; fill: rgb(0, 0, 0); fill-opacity: 0.2; stroke-width: 1; opacity: 1;"/><path class="sankey-link" d="M 140 555.2447560549385 L135 555.2447560549385A29.48797050597622 29.48797050597622 0 0 0 105.51202949402378 584.7327265609147L105.51202949402378 589.7327265609147A29.48797050597622 29.48797050597622 0 0 0 135 619.2206970668908L305 619.2206970668908A29.48797050597622 29.48797050597622 0 0 0 334.48797050597625 589.7327265609147L334.48797050597625 584.7327265609147A29.48797050597622 29.48797050597622 0 0 0 305 555.2447560549385L300 555.2447560549385L300 574.7327265609147L305 574.7327265609147A10 10 0 0 1 315 584.7327265609147L315 589.7327265609147A10 10 0 0 1 305 599.7327265609147L135 599.7327265609147A10 10 0 0 1 125 589.7327265609147L125 584.7327265609147A10 10 0 0 1 135 574.7327265609147L140 574.7327265609147Z" style="stroke: rgb(68, 68, 68); stroke-opacity: 1; fill: rgb(0, 0, 0); fill-opacity: 0.2; stroke-width: 0; opacity: 1;"/><path class="sankey-link" d="M20,428.30743659450127C220,428.30743659450127 220,108.46303697996608 420,108.46303697996608L420,114.17726175362439C220,114.17726175362439 220,434.0216613681596 20,434.0216613681596Z" style="stroke: rgb(68, 68, 68); stroke-opacity: 1; fill: rgb(0, 0, 0); fill-opacity: 0.2; stroke-width: 0; opacity: 1;"/><path class="sankey-link" d="M20,444.649319584214C220,444.649319584214 220,476.4643658132484 420,476.4643658132484L420,476.7032170071716C220,476.7032170071716 220,444.88817077813724 20,444.88817077813724Z" style="stroke: rgb(0, 0, 0); stroke-opacity: 0.2; fill: rgb(0, 0, 0); fill-opacity: 0.2; stroke-width: 1; opacity: 1;"/><path class="sankey-link" d="M20,444.8881707781372C220,444.8881707781372 220,501.52675347434564 420,501.52675347434564L420,501.91557029854556C220,501.91557029854556 220,445.2769876023371 20,445.2769876023371Z" style="stroke: rgb(0, 0, 0); stroke-opacity: 0.2; fill: rgb(0, 0, 0); fill-opacity: 0.2; stroke-width: 1; opacity: 1;"/><path class="sankey-link" d="M20,444.4159533510895C220,444.4159533510895 220,421.6417645802596 420,421.6417645802596L420,421.87513081338403C220,421.87513081338403 220,444.64931958421397 20,444.64931958421397Z" style="stroke: rgb(0, 0, 0); stroke-opacity: 0.2; fill: rgb(0, 0, 0); fill-opacity: 0.2; stroke-width: 1; opacity: 1;"/><path class="sankey-link" d="M20,441.27376607714945C220,441.27376607714945 220,320.8503324690025 420,320.8503324690025L420,322.9942936023151C220,322.9942936023151 220,443.41772721046203 20,443.41772721046203Z" style="stroke: rgb(68, 68, 68); stroke-opacity: 1; fill: rgb(0, 0, 0); fill-opacity: 0.2; stroke-width: 0; opacity: 1;"/><path class="sankey-link" d="M20,434.02166136815964C220,434.02166136815964 220,151.674142291214 420,151.674142291214L420,157.13914564083453C220,157.13914564083453 220,439.4866647177801 20,439.4866647177801Z" style="stroke: rgb(68, 68, 68); stroke-opacity: 1; fill: rgb(0, 0, 0); fill-opacity: 0.2; stroke-width: 0; opacity: 1;"/><path class="sankey-link" d="M20,443.43482342899597C220,443.43482342899597 220,372.6972902776591 420,372.6972902776591L420,373.67842019975257C220,373.67842019975257 220,444.41595335108946 20,444.41595335108946Z" style="stroke: rgb(0, 0, 0); stroke-opacity: 0.2; fill: rgb(0, 0, 0); fill-opacity: 0.2; stroke-width: 1; opacity: 1;"/><path class="sankey-link" d="M20,428.2688032518904C220,428.2688032518904 220,36.29677109350772 420,36.29677109350772L420,36.335404436118644C220,36.335404436118644 220,428.30743659450127 20,428.30743659450127Z" style="stroke: rgb(0, 0, 0); stroke-opacity: 0.2; fill: rgb(0, 0, 0); fill-opacity: 0.2; stroke-width: 1; opacity: 1;"/><path class="sankey-link" d="M20,440.22797397608406C220,440.22797397608406 220,236.34659864440323 420,236.34659864440323L420,237.21096502286537C220,237.21096502286537 220,441.0923403545462 20,441.0923403545462Z" style="stroke: rgb(0, 0, 0); stroke-opacity: 0.2; fill: rgb(0, 0, 0); fill-opacity: 0.2; stroke-width: 1; opacity: 1;"/><path class="sankey-link" d="M20,441.0923403545462C220,441.0923403545462 220,267.3738736690528 420,267.3738736690528L420,267.47965925451166C220,267.47965925451166 220,441.19812594000507 20,441.19812594000507Z" style="stroke: rgb(0, 0, 0); stroke-opacity: 0.2; fill: rgb(0, 0, 0); fill-opacity: 0.2; stroke-width: 1; opacity: 1;"/><path class="sankey-link" d="M20,443.4177272104621C220,443.4177272104621 220,347.85065580765377 420,347.85065580765377L420,347.86775202618765C220,347.86775202618765 220,443.43482342899597 20,443.43482342899597Z" style="stroke: rgb(0, 0, 0); stroke-opacity: 0.2; fill: rgb(0, 0, 0); fill-opacity: 0.2; stroke-width: 1; opacity: 1;"/><path class="sankey-link" d="M20,439.4866647177802C220,439.4866647177802 220,196.89246952070232 420,196.89246952070232L420,197.63377877900626C220,197.63377877900626 220,440.22797397608406 20,440.22797397608406Z" style="stroke: rgb(0, 0, 0); stroke-opacity: 0.2; fill: rgb(0, 0, 0); fill-opacity: 0.2; stroke-width: 1; opacity: 1;"/><path class="sankey-link" d="M20,441.1981259400052C220,441.1981259400052 220,296.41353899803636 420,296.41353899803636L420,296.4891791351807C220,296.4891791351807 220,441.2737660771495 20,441.2737660771495Z" style="stroke: rgb(0, 0, 0); stroke-opacity: 0.2; fill: rgb(0, 0, 0); fill-opacity: 0.2; stroke-width: 1; opacity: 1;"/><path class="sankey-link" d="M20,445.2769876023371C220,445.2769876023371 220,550.0256861094028 420,550.0256861094028L420,550.0256861855578C220,550.0256861855578 220,445.27698767849205 20,445.27698767849205Z" style="stroke: rgb(0, 0, 0); stroke-opacity: 0.2; fill: rgb(0, 0, 0); fill-opacity: 0.2; stroke-width: 1; opacity: 1;"/><path class="sankey-link" d="M20,445.27698767849193C80,445.27698767849193 80,552.9508151646019 140,552.9508151646019L140,553.7574232445941C80,553.7574232445941 80,446.08359575848425 20,446.08359575848425Z" style="stroke: rgb(0, 0, 0); stroke-opacity: 0.2; fill: rgb(0, 0, 0); fill-opacity: 0.2; stroke-width: 1; opacity: 1;"/><path class="sankey-link" d="M20,251.45088989623187C150,251.45088989623187 150,554.6483836791538 280,554.6483836791538L280,554.6483836821208C150,554.6483836821208 150,251.45088989919893 20,251.45088989919893Z" style="stroke: rgb(0, 0, 0); stroke-opacity: 0.2; fill: rgb(0, 0, 0); fill-opacity: 0.2; stroke-width: 1; opacity: 1;"/><path class="sankey-link" d="M20,242.85970119715688C220,242.85970119715688 220,84.86177922070087 420,84.86177922070087L420,88.16855609390473C220,88.16855609390473 220,246.1664780703607 20,246.1664780703607Z" style="stroke: rgb(68, 68, 68); stroke-opacity: 1; fill: rgb(0, 0, 0); fill-opacity: 0.2; stroke-width: 0; opacity: 1;"/><path class="sankey-link" d="M20,246.16647807036074C220,246.16647807036074 220,143.7316740766736 420,143.7316740766736L420,145.2264676908152C220,145.2264676908152 220,247.66127168450234 20,247.66127168450234Z" style="stroke: rgb(68, 68, 68); stroke-opacity: 1; fill: rgb(0, 0, 0); fill-opacity: 0.2; stroke-width: 0; opacity: 1;"/><path class="sankey-link" d="M20,241.65266949820773C220,241.65266949820773 220,24.453756765692777 420,24.453756765692777L420,25.607856647310346C220,25.607856647310346 220,242.8067693798253 20,242.8067693798253Z" style="stroke: rgb(68, 68, 68); stroke-opacity: 1; fill: rgb(0, 0, 0); fill-opacity: 0.2; stroke-width: 0; opacity: 1;"/><path class="sankey-link" d="M20,249.8434400305769C220,249.8434400305769 220,227.81343025671333 420,227.81343025671333L420,229.37322876129866C220,229.37322876129866 220,251.40323853516222 20,251.40323853516222Z" style="stroke: rgb(68, 68, 68); stroke-opacity: 1; fill: rgb(0, 0, 0); fill-opacity: 0.2; stroke-width: 0; opacity: 1;"/><path class="sankey-link" d="M20,251.40323853516227C220,251.40323853516227 220,262.77665260250245 420,262.77665260250245L420,262.77665279412616C220,262.77665279412616 220,251.403238726786 20,251.403238726786Z" style="stroke: rgb(0, 0, 0); stroke-opacity: 0.2; fill: rgb(0, 0, 0); fill-opacity: 0.2; stroke-width: 1; opacity: 1;"/><path class="sankey-link" d="M20,247.66127168450237C220,247.66127168450237 220,185.18728616194278 420,185.18728616194278L420,187.36945450801727C220,187.36945450801727 220,249.84344003057686 20,249.84344003057686Z" style="stroke: rgb(68, 68, 68); stroke-opacity: 1; fill: rgb(0, 0, 0); fill-opacity: 0.2; stroke-width: 0; opacity: 1;"/><path class="sankey-link" d="M20,251.40323872678593C220,251.40323872678593 220,294.26312645577906 420,294.26312645577906L420,294.31077762522506C220,294.31077762522506 220,251.45088989623187 20,251.45088989623187Z" style="stroke: rgb(0, 0, 0); stroke-opacity: 0.2; fill: rgb(0, 0, 0); fill-opacity: 0.2; stroke-width: 1; opacity: 1;"/><path class="sankey-link" d="M20,242.80676937982528C220,242.80676937982528 220,59.201697826301164 420,59.201697826301164L420,59.25462964363275C220,59.25462964363275 220,242.85970119715685 20,242.85970119715685Z" style="stroke: rgb(0, 0, 0); stroke-opacity: 0.2; fill: rgb(0, 0, 0); fill-opacity: 0.2; stroke-width: 1; opacity: 1;"/><path class="sankey-link" d="M20,251.45088989919896C80,251.45088989919896 80,549.8799748683502 140,549.8799748683502L140,549.9953776665182C80,549.9953776665182 80,251.56629269736698 20,251.56629269736698Z" style="stroke: rgb(0, 0, 0); stroke-opacity: 0.2; fill: rgb(0, 0, 0); fill-opacity: 0.2; stroke-width: 1; opacity: 1;"/><path class="sankey-link" d="M20,508.45007734446557C220,508.45007734446557 220,527.1723057149251 420,527.1723057149251L420,527.1886599768217C220,527.1886599768217 220,508.46643160636205 20,508.46643160636205Z" style="stroke: rgb(0, 0, 0); stroke-opacity: 0.2; fill: rgb(0, 0, 0); fill-opacity: 0.2; stroke-width: 1; opacity: 1;"/><path class="sankey-link" d="M20,508.57210431506843C150,508.57210431506843 150,555.02133389859 280,555.02133389859L280,555.368373517206C150,555.368373517206 150,508.91914393368455 20,508.91914393368455Z" style="stroke: rgb(0, 0, 0); stroke-opacity: 0.2; fill: rgb(0, 0, 0); fill-opacity: 0.2; stroke-width: 1; opacity: 1;"/><path class="sankey-link" d="M20,499.4399365361035C220,499.4399365361035 220,117.69987665332391 420,117.69987665332391L420,117.9530527111495C220,117.9530527111495 220,499.69311259392913 20,499.69311259392913Z" style="stroke: rgb(0, 0, 0); stroke-opacity: 0.2; fill: rgb(0, 0, 0); fill-opacity: 0.2; stroke-width: 1; opacity: 1;"/><path class="sankey-link" d="M20,506.8408618087021C220,506.8408618087021 220,476.7176009438436 420,476.7176009438436L420,476.9962096383021C220,476.9962096383021 220,507.1194705031606 20,507.1194705031606Z" style="stroke: rgb(0, 0, 0); stroke-opacity: 0.2; fill: rgb(0, 0, 0); fill-opacity: 0.2; stroke-width: 1; opacity: 1;"/><path class="sankey-link" d="M20,507.11947050316064C220,507.11947050316064 220,502.1820926328273 420,502.1820926328273L420,503.51269947413226C220,503.51269947413226 220,508.4500773444656 20,508.4500773444656Z" style="stroke: rgb(68, 68, 68); stroke-opacity: 1; fill: rgb(0, 0, 0); fill-opacity: 0.2; stroke-width: 0; opacity: 1;"/><path class="sankey-link" d="M20,505.9177758542503C220,505.9177758542503 220,421.89245910900564 420,421.89245910900564L420,422.52228200156736C220,422.52228200156736 220,506.547598746812 20,506.547598746812Z" style="stroke: rgb(0, 0, 0); stroke-opacity: 0.2; fill: rgb(0, 0, 0); fill-opacity: 0.2; stroke-width: 1; opacity: 1;"/><path class="sankey-link" d="M20,506.54759874681196C220,506.54759874681196 220,446.60754353635025 420,446.60754353635025L420,446.90080659824025C220,446.90080659824025 220,506.84086180870196 20,506.84086180870196Z" style="stroke: rgb(0, 0, 0); stroke-opacity: 0.2; fill: rgb(0, 0, 0); fill-opacity: 0.2; stroke-width: 1; opacity: 1;"/><path class="sankey-link" d="M20,504.77187226137823C220,504.77187226137823 220,322.9942936023151 420,322.9942936023151L420,323.014288694263C220,323.014288694263 220,504.7918673533261 20,504.7918673533261Z" style="stroke: rgb(0, 0, 0); stroke-opacity: 0.2; fill: rgb(0, 0, 0); fill-opacity: 0.2; stroke-width: 1; opacity: 1;"/><path class="sankey-link" d="M20,505.44039960971827C220,505.44039960971827 220,398.00417458934186 420,398.00417458934186L420,398.48155083387377C220,398.48155083387377 220,505.9177758542502 20,505.9177758542502Z" style="stroke: rgb(0, 0, 0); stroke-opacity: 0.2; fill: rgb(0, 0, 0); fill-opacity: 0.2; stroke-width: 1; opacity: 1;"/><path class="sankey-link" d="M20,499.6931125939292C220,499.6931125939292 220,157.69167555097215 420,157.69167555097215L420,159.69815646377066C220,159.69815646377066 220,501.69959350672775 20,501.69959350672775Z" style="stroke: rgb(68, 68, 68); stroke-opacity: 1; fill: rgb(0, 0, 0); fill-opacity: 0.2; stroke-width: 0; opacity: 1;"/><path class="sankey-link" d="M20,505.0112264895574C220,505.0112264895574 220,373.72040097450224 420,373.72040097450224L420,374.1495740946631C220,374.1495740946631 220,505.4403996097182 20,505.4403996097182Z" style="stroke: rgb(0, 0, 0); stroke-opacity: 0.2; fill: rgb(0, 0, 0); fill-opacity: 0.2; stroke-width: 1; opacity: 1;"/><path class="sankey-link" d="M20,503.94410315037356C220,503.94410315037356 220,237.57424307636202 420,237.57424307636202L420,237.6994940175516C220,237.6994940175516 220,504.0693540915632 20,504.0693540915632Z" style="stroke: rgb(0, 0, 0); stroke-opacity: 0.2; fill: rgb(0, 0, 0); fill-opacity: 0.2; stroke-width: 1; opacity: 1;"/><path class="sankey-link" d="M20,504.06935409156324C220,504.06935409156324 220,267.7773724376856 420,267.7773724376856L420,268.2998801813053C220,268.2998801813053 220,504.59186183518295 20,504.59186183518295Z" style="stroke: rgb(0, 0, 0); stroke-opacity: 0.2; fill: rgb(0, 0, 0); fill-opacity: 0.2; stroke-width: 1; opacity: 1;"/><path class="sankey-link" d="M20,504.7918673533259C220,504.7918673533259 220,347.8677520261876 420,347.8677520261876L420,348.08711116241915C220,348.08711116241915 220,505.0112264895575 20,505.0112264895575Z" style="stroke: rgb(0, 0, 0); stroke-opacity: 0.2; fill: rgb(0, 0, 0); fill-opacity: 0.2; stroke-width: 1; opacity: 1;"/><path class="sankey-link" d="M20,501.6995935067276C220,501.6995935067276 220,199.0824341384223 420,199.0824341384223L420,201.32694378206827C220,201.32694378206827 220,503.94410315037356 20,503.94410315037356Z" style="stroke: rgb(68, 68, 68); stroke-opacity: 1; fill: rgb(0, 0, 0); fill-opacity: 0.2; stroke-width: 0; opacity: 1;"/><path class="sankey-link" d="M20,504.59186183518284C220,504.59186183518284 220,296.74084919058583 420,296.74084919058583L420,296.92085961678123C220,296.92085961678123 220,504.77187226137823 20,504.77187226137823Z" style="stroke: rgb(0, 0, 0); stroke-opacity: 0.2; fill: rgb(0, 0, 0); fill-opacity: 0.2; stroke-width: 1; opacity: 1;"/><path class="sankey-link" d="M20,508.4664316063619C220,508.4664316063619 220,550.0490756732787 420,550.0490756732787L420,550.1547483819851C220,550.1547483819851 220,508.57210431506826 20,508.57210431506826Z" style="stroke: rgb(0, 0, 0); stroke-opacity: 0.2; fill: rgb(0, 0, 0); fill-opacity: 0.2; stroke-width: 1; opacity: 1;"/><path class="sankey-link" d="M20,499.2746143910283C220,499.2746143910283 220,61.69668540109276 420,61.69668540109276L420,61.862007546167966C220,61.862007546167966 220,499.43993653610346 20,499.43993653610346Z" style="stroke: rgb(0, 0, 0); stroke-opacity: 0.2; fill: rgb(0, 0, 0); fill-opacity: 0.2; stroke-width: 1; opacity: 1;"/><path class="sankey-link" d="M20,508.9191439336844C80,508.9191439336844 80,554.5228391358178 140,554.5228391358178L140,555.2238816749532C80,555.2238816749532 80,509.6201864728197 20,509.6201864728197Z" style="stroke: rgb(0, 0, 0); stroke-opacity: 0.2; fill: rgb(0, 0, 0); fill-opacity: 0.2; stroke-width: 1; opacity: 1;"/><path class="sankey-link" d="M20,541.0241706418093C220,541.0241706418093 220,527.1886599768217 420,527.1886599768217L420,527.190059731928C220,527.190059731928 220,541.0255703969157 20,541.0255703969157Z" style="stroke: rgb(0, 0, 0); stroke-opacity: 0.2; fill: rgb(0, 0, 0); fill-opacity: 0.2; stroke-width: 1; opacity: 1;"/><path class="sankey-link" d="M20,542.546212464969C150,542.546212464969 150,555.3683735172059 280,555.3683735172059L280,555.4836515846547C150,555.4836515846547 150,542.6614905324178 20,542.6614905324178Z" style="stroke: rgb(0, 0, 0); stroke-opacity: 0.2; fill: rgb(0, 0, 0); fill-opacity: 0.2; stroke-width: 1; opacity: 1;"/><path class="sankey-link" d="M20,532.4172511714914C220,532.4172511714914 220,117.95305271114944 420,117.95305271114944L420,119.46149693976659C220,119.46149693976659 220,533.9256954001087 20,533.9256954001087Z" style="stroke: rgb(68, 68, 68); stroke-opacity: 1; fill: rgb(0, 0, 0); fill-opacity: 0.2; stroke-width: 0; opacity: 1;"/><path class="sankey-link" d="M20,540.3226891229093C220,540.3226891229093 220,476.99620963830216 420,476.99620963830216L420,477.51793230525084C220,477.51793230525084 220,540.8444117898579 20,540.8444117898579Z" style="stroke: rgb(0, 0, 0); stroke-opacity: 0.2; fill: rgb(0, 0, 0); fill-opacity: 0.2; stroke-width: 1; opacity: 1;"/><path class="sankey-link" d="M20,540.8444117898581C220,540.8444117898581 220,503.5126994741321 420,503.5126994741321L420,503.69245832608317C220,503.69245832608317 220,541.0241706418091 20,541.0241706418091Z" style="stroke: rgb(0, 0, 0); stroke-opacity: 0.2; fill: rgb(0, 0, 0); fill-opacity: 0.2; stroke-width: 1; opacity: 1;"/><path class="sankey-link" d="M20,537.1815194013053C220,537.1815194013053 220,422.5222820015674 420,422.5222820015674L420,422.7599365674556C220,422.7599365674556 220,537.4191739671934 20,537.4191739671934Z" style="stroke: rgb(0, 0, 0); stroke-opacity: 0.2; fill: rgb(0, 0, 0); fill-opacity: 0.2; stroke-width: 1; opacity: 1;"/><path class="sankey-link" d="M20,537.4191739671936C220,537.4191739671936 220,446.9008065982402 420,446.9008065982402L420,449.804321753956C220,449.804321753956 220,540.3226891229093 20,540.3226891229093Z" style="stroke: rgb(68, 68, 68); stroke-opacity: 1; fill: rgb(0, 0, 0); fill-opacity: 0.2; stroke-width: 0; opacity: 1;"/><path class="sankey-link" d="M20,536.6666199959186C220,536.6666199959186 220,323.014288694263 420,323.014288694263L420,323.2127372101379C220,323.2127372101379 220,536.8650685117934 20,536.8650685117934Z" style="stroke: rgb(0, 0, 0); stroke-opacity: 0.2; fill: rgb(0, 0, 0); fill-opacity: 0.2; stroke-width: 1; opacity: 1;"/><path class="sankey-link" d="M20,533.9256954001086C220,533.9256954001086 220,159.69815646377074 420,159.69815646377074L420,159.9399128047447C220,159.9399128047447 220,534.1674517410826 20,534.1674517410826Z" style="stroke: rgb(0, 0, 0); stroke-opacity: 0.2; fill: rgb(0, 0, 0); fill-opacity: 0.2; stroke-width: 1; opacity: 1;"/><path class="sankey-link" d="M20,537.0164942148821C220,537.0164942148821 220,374.14957409466314 420,374.14957409466314L420,374.31459928108626C220,374.31459928108626 220,537.1815194013053 20,537.1815194013053Z" style="stroke: rgb(0, 0, 0); stroke-opacity: 0.2; fill: rgb(0, 0, 0); fill-opacity: 0.2; stroke-width: 1; opacity: 1;"/><path class="sankey-link" d="M20,534.8721465799993C220,534.8721465799993 220,237.6994940175516 420,237.6994940175516L420,237.97159708863703C220,237.97159708863703 220,535.1442496510847 20,535.1442496510847Z" style="stroke: rgb(0, 0, 0); stroke-opacity: 0.2; fill: rgb(0, 0, 0); fill-opacity: 0.2; stroke-width: 1; opacity: 1;"/><path class="sankey-link" d="M20,535.1442496510848C220,535.1442496510848 220,268.29988018130524 420,268.29988018130524L420,269.81356629789383C220,269.81356629789383 220,536.6579357676734 20,536.6579357676734Z" style="stroke: rgb(68, 68, 68); stroke-opacity: 1; fill: rgb(0, 0, 0); fill-opacity: 0.2; stroke-width: 0; opacity: 1;"/><path class="sankey-link" d="M20,536.8650685117935C220,536.8650685117935 220,348.08711116241915 420,348.08711116241915L420,348.2385368655079C220,348.2385368655079 220,537.0164942148823 20,537.0164942148823Z" style="stroke: rgb(0, 0, 0); stroke-opacity: 0.2; fill: rgb(0, 0, 0); fill-opacity: 0.2; stroke-width: 1; opacity: 1;"/><path class="sankey-link" d="M20,534.1674517410826C220,534.1674517410826 220,201.3269437820682 420,201.3269437820682L420,202.031638620985C220,202.031638620985 220,534.8721465799994 20,534.8721465799994Z" style="stroke: rgb(0, 0, 0); stroke-opacity: 0.2; fill: rgb(0, 0, 0); fill-opacity: 0.2; stroke-width: 1; opacity: 1;"/><path class="sankey-link" d="M20,536.6579357676734C220,536.6579357676734 220,296.92085961678123 420,296.92085961678123L420,296.92954384502644C220,296.92954384502644 220,536.6666199959187 20,536.6666199959187Z" style="stroke: rgb(0, 0, 0); stroke-opacity: 0.2; fill: rgb(0, 0, 0); fill-opacity: 0.2; stroke-width: 1; opacity: 1;"/><path class="sankey-link" d="M20,541.0255703969156C220,541.0255703969156 220,550.1547483819851 420,550.1547483819851L420,551.6753904500384C220,551.6753904500384 220,542.5462124649689 20,542.5462124649689Z" style="stroke: rgb(68, 68, 68); stroke-opacity: 1; fill: rgb(0, 0, 0); fill-opacity: 0.2; stroke-width: 0; opacity: 1;"/><path class="sankey-link" d="M20,542.6614905324179C80,542.6614905324179 80,555.2238816749532 140,555.2238816749532L140,555.2447560549385C80,555.2447560549385 80,542.6823649124033 20,542.6823649124033Z" style="stroke: rgb(0, 0, 0); stroke-opacity: 0.2; fill: rgb(0, 0, 0); fill-opacity: 0.2; stroke-width: 1; opacity: 1;"/><path class="sankey-link" d="M20,347.69235816914795C220,347.69235816914795 220,527.1722849552772 420,527.1722849552772L420,527.1723056867378C220,527.1723056867378 220,347.69237890060856 20,347.69237890060856Z" style="stroke: rgb(0, 0, 0); stroke-opacity: 0.2; fill: rgb(0, 0, 0); fill-opacity: 0.2; stroke-width: 1; opacity: 1;"/><path class="sankey-link" d="M20,320.787203312997C220,320.787203312997 220,1.4765966227514582e-14 420,1.4765966227514582e-14L420,1.6566920670211713C220,1.6566920670211713 220,322.44389538001815 20,322.44389538001815Z" style="stroke: rgb(68, 68, 68); stroke-opacity: 1; fill: rgb(0, 0, 0); fill-opacity: 0.2; stroke-width: 0; opacity: 1;"/><path class="sankey-link" d="M20,323.0078551079261C220,323.0078551079261 220,90.23509671884032 420,90.23509671884032L420,98.99251377997042C220,98.99251377997042 220,331.76527216905623 20,331.76527216905623Z" style="stroke: rgb(68, 68, 68); stroke-opacity: 1; fill: rgb(0, 0, 0); fill-opacity: 0.2; stroke-width: 0; opacity: 1;"/><path class="sankey-link" d="M20,345.04734422603826C220,345.04734422603826 220,474.0400983225014 420,474.0400983225014L420,476.3607528171606C220,476.3607528171606 220,347.3679987206974 20,347.3679987206974Z" style="stroke: rgb(68, 68, 68); stroke-opacity: 1; fill: rgb(0, 0, 0); fill-opacity: 0.2; stroke-width: 0; opacity: 1;"/><path class="sankey-link" d="M20,347.36799872069736C220,347.36799872069736 220,500.7605614212806 420,500.7605614212806L420,501.08492086973126C220,501.08492086973126 220,347.692358169148 20,347.692358169148Z" style="stroke: rgb(0, 0, 0); stroke-opacity: 0.2; fill: rgb(0, 0, 0); fill-opacity: 0.2; stroke-width: 1; opacity: 1;"/><path class="sankey-link" d="M20,344.65146618071157C220,344.65146618071157 220,421.30092955751303 420,421.30092955751303L420,421.347327966033C220,421.347327966033 220,344.69786458923153 20,344.69786458923153Z" style="stroke: rgb(0, 0, 0); stroke-opacity: 0.2; fill: rgb(0, 0, 0); fill-opacity: 0.2; stroke-width: 1; opacity: 1;"/><path class="sankey-link" d="M20,344.69786458923153C220,344.69786458923153 220,446.2430602535099 420,446.2430602535099L420,446.5925398903166C220,446.5925398903166 220,345.0473442260382 20,345.0473442260382Z" style="stroke: rgb(0, 0, 0); stroke-opacity: 0.2; fill: rgb(0, 0, 0); fill-opacity: 0.2; stroke-width: 1; opacity: 1;"/><path class="sankey-link" d="M20,342.17662668406C220,342.17662668406 220,320.4472779088653 420,320.4472779088653L420,320.6046132242558C220,320.6046132242558 220,342.3339619994505 20,342.3339619994505Z" style="stroke: rgb(0, 0, 0); stroke-opacity: 0.2; fill: rgb(0, 0, 0); fill-opacity: 0.2; stroke-width: 1; opacity: 1;"/><path class="sankey-link" d="M20,331.76527216905623C220,331.76527216905623 220,147.53771198522386 420,147.53771198522386L420,147.7690049998432C220,147.7690049998432 220,331.9965651836756 20,331.9965651836756Z" style="stroke: rgb(0, 0, 0); stroke-opacity: 0.2; fill: rgb(0, 0, 0); fill-opacity: 0.2; stroke-width: 1; opacity: 1;"/><path class="sankey-link" d="M20,343.6866544774538C220,343.6866544774538 220,371.0538584309855 420,371.0538584309855L420,372.0186701342432C220,372.0186701342432 220,344.65146618071157 20,344.65146618071157Z" style="stroke: rgb(0, 0, 0); stroke-opacity: 0.2; fill: rgb(0, 0, 0); fill-opacity: 0.2; stroke-width: 1; opacity: 1;"/><path class="sankey-link" d="M20,322.4438953800182C220,322.4438953800182 220,30.331269143498915 420,30.331269143498915L420,30.88177433843147C220,30.88177433843147 220,322.9944005749507 20,322.9944005749507Z" style="stroke: rgb(0, 0, 0); stroke-opacity: 0.2; fill: rgb(0, 0, 0); fill-opacity: 0.2; stroke-width: 1; opacity: 1;"/><path class="sankey-link" d="M20,336.36051201997395C220,336.36051201997395 220,230.21839319938374 420,230.21839319938374L420,231.76053415430005C220,231.76053415430005 220,337.9026529748902 20,337.9026529748902Z" style="stroke: rgb(68, 68, 68); stroke-opacity: 1; fill: rgb(0, 0, 0); fill-opacity: 0.2; stroke-width: 0; opacity: 1;"/><path class="sankey-link" d="M20,337.90265297489015C220,337.90265297489015 220,262.7766532730617 420,262.7766532730617L420,266.97918205342353C220,266.97918205342353 220,342.105181755252 20,342.105181755252Z" style="stroke: rgb(68, 68, 68); stroke-opacity: 1; fill: rgb(0, 0, 0); fill-opacity: 0.2; stroke-width: 0; opacity: 1;"/><path class="sankey-link" d="M20,342.3339619994504C220,342.3339619994504 220,346.00980193254605 420,346.00980193254605L420,347.36249441054946C220,347.36249441054946 220,343.6866544774538 20,343.6866544774538Z" style="stroke: rgb(68, 68, 68); stroke-opacity: 1; fill: rgb(0, 0, 0); fill-opacity: 0.2; stroke-width: 0; opacity: 1;"/><path class="sankey-link" d="M20,331.99656518367556C220,331.99656518367556 220,188.79853682634558 420,188.79853682634558L420,193.1624836626438C220,193.1624836626438 220,336.36051201997384 20,336.36051201997384Z" style="stroke: rgb(68, 68, 68); stroke-opacity: 1; fill: rgb(0, 0, 0); fill-opacity: 0.2; stroke-width: 0; opacity: 1;"/><path class="sankey-link" d="M20,342.10518175525203C220,342.10518175525203 220,295.82480593874504 420,295.82480593874504L420,295.896250867553C220,295.896250867553 220,342.17662668406 20,342.17662668406Z" style="stroke: rgb(0, 0, 0); stroke-opacity: 0.2; fill: rgb(0, 0, 0); fill-opacity: 0.2; stroke-width: 1; opacity: 1;"/><path class="sankey-link" d="M20,347.69237890060856C220,347.69237890060856 220,550.0024858853338 420,550.0024858853338L420,550.025686109403C220,550.025686109403 220,347.71557912467756 20,347.71557912467756Z" style="stroke: rgb(0, 0, 0); stroke-opacity: 0.2; fill: rgb(0, 0, 0); fill-opacity: 0.2; stroke-width: 1; opacity: 1;"/><path class="sankey-link" d="M20,322.9944005749507C220,322.9944005749507 220,60.72423363042384 420,60.72423363042384L420,60.73768816339924C220,60.73768816339924 220,323.0078551079261 20,323.0078551079261Z" style="stroke: rgb(0, 0, 0); stroke-opacity: 0.2; fill: rgb(0, 0, 0); fill-opacity: 0.2; stroke-width: 1; opacity: 1;"/><path class="sankey-link" d="M20,347.7155791246775C80,347.7155791246775 80,550.0979905341817 140,550.0979905341817L140,551.0312351711125C80,551.0312351711125 80,348.6488237616083 20,348.6488237616083Z" style="stroke: rgb(0, 0, 0); stroke-opacity: 0.2; fill: rgb(0, 0, 0); fill-opacity: 0.2; stroke-width: 1; opacity: 1;"/><path class="sankey-link" d="M20,403.17920831507286C220,403.17920831507286 220,527.1723056867378 420,527.1723056867378L420,527.1723057149251C220,527.1723057149251 220,403.17920834326003 20,403.17920834326003Z" style="stroke: rgb(0, 0, 0); stroke-opacity: 0.2; fill: rgb(0, 0, 0); fill-opacity: 0.2; stroke-width: 1; opacity: 1;"/><path class="sankey-link" d="M20,403.17920834326C150,403.17920834326 150,554.6483836821208 280,554.6483836821208L280,555.02133389859C150,555.02133389859 150,403.5521585597293 20,403.5521585597293Z" style="stroke: rgb(0, 0, 0); stroke-opacity: 0.2; fill: rgb(0, 0, 0); fill-opacity: 0.2; stroke-width: 1; opacity: 1;"/><path class="sankey-link" d="M20,377.81988245304956C220,377.81988245304956 220,98.99251377997048 420,98.99251377997048L420,108.4630369799661C220,108.4630369799661 220,387.29040565304524 20,387.29040565304524Z" style="stroke: rgb(68, 68, 68); stroke-opacity: 1; fill: rgb(0, 0, 0); fill-opacity: 0.2; stroke-width: 0; opacity: 1;"/><path class="sankey-link" d="M20,402.6337627143705C220,402.6337627143705 220,476.3607528171606 420,476.3607528171606L420,476.4643658132484C220,476.4643658132484 220,402.7373757104583 20,402.7373757104583Z" style="stroke: rgb(0, 0, 0); stroke-opacity: 0.2; fill: rgb(0, 0, 0); fill-opacity: 0.2; stroke-width: 1; opacity: 1;"/><path class="sankey-link" d="M20,402.73737571045837C220,402.73737571045837 220,501.08492086973115 420,501.08492086973115L420,501.5267534743456C220,501.5267534743456 220,403.1792083150728 20,403.1792083150728Z" style="stroke: rgb(0, 0, 0); stroke-opacity: 0.2; fill: rgb(0, 0, 0); fill-opacity: 0.2; stroke-width: 1; opacity: 1;"/><path class="sankey-link" d="M20,402.3243224565829C220,402.3243224565829 220,421.347327966033 420,421.347327966033L420,421.6417645802596C220,421.6417645802596 220,402.61875907080946 20,402.61875907080946Z" style="stroke: rgb(0, 0, 0); stroke-opacity: 0.2; fill: rgb(0, 0, 0); fill-opacity: 0.2; stroke-width: 1; opacity: 1;"/><path class="sankey-link" d="M20,402.61875907080946C220,402.61875907080946 220,446.5925398903166 420,446.5925398903166L420,446.6075435338776C220,446.6075435338776 220,402.6337627143705 20,402.6337627143705Z" style="stroke: rgb(0, 0, 0); stroke-opacity: 0.2; fill: rgb(0, 0, 0); fill-opacity: 0.2; stroke-width: 1; opacity: 1;"/><path class="sankey-link" d="M20,400.4235730386902C220,400.4235730386902 220,320.6046132242558 420,320.6046132242558L420,320.8503324690025C220,320.8503324690025 220,400.66929228343696 20,400.66929228343696Z" style="stroke: rgb(0, 0, 0); stroke-opacity: 0.2; fill: rgb(0, 0, 0); fill-opacity: 0.2; stroke-width: 1; opacity: 1;"/><path class="sankey-link" d="M20,401.8360738239571C220,401.8360738239571 220,397.5159259567161 420,397.5159259567161L420,398.00417458934197C220,398.00417458934197 220,402.324322456583 20,402.324322456583Z" style="stroke: rgb(0, 0, 0); stroke-opacity: 0.2; fill: rgb(0, 0, 0); fill-opacity: 0.2; stroke-width: 1; opacity: 1;"/><path class="sankey-link" d="M20,387.2904056530452C220,387.2904056530452 220,147.76900499984322 420,147.76900499984322L420,151.67414229121403C220,151.67414229121403 220,391.195542944416 20,391.195542944416Z" style="stroke: rgb(68, 68, 68); stroke-opacity: 1; fill: rgb(0, 0, 0); fill-opacity: 0.2; stroke-width: 0; opacity: 1;"/><path class="sankey-link" d="M20,401.1574536805413C220,401.1574536805413 220,372.0186701342433 420,372.0186701342433L420,372.697290277659C220,372.697290277659 220,401.83607382395707 20,401.83607382395707Z" style="stroke: rgb(0, 0, 0); stroke-opacity: 0.2; fill: rgb(0, 0, 0); fill-opacity: 0.2; stroke-width: 1; opacity: 1;"/><path class="sankey-link" d="M20,371.4458884602798C220,371.4458884602798 220,30.88177433843144 420,30.88177433843144L420,36.29677109350769C220,36.29677109350769 220,376.860885215356 20,376.860885215356Z" style="stroke: rgb(68, 68, 68); stroke-opacity: 1; fill: rgb(0, 0, 0); fill-opacity: 0.2; stroke-width: 0; opacity: 1;"/><path class="sankey-link" d="M20,394.9255288024745C220,394.9255288024745 220,231.7605341543 420,231.7605341543L420,236.3465986444033C220,236.3465986444033 220,399.51159329257774 20,399.51159329257774Z" style="stroke: rgb(68, 68, 68); stroke-opacity: 1; fill: rgb(0, 0, 0); fill-opacity: 0.2; stroke-width: 0; opacity: 1;"/><path class="sankey-link" d="M20,399.51159329257774C220,399.51159329257774 220,266.9791820534236 420,266.9791820534236L420,267.3738736690528C220,267.3738736690528 220,399.90628490820694 20,399.90628490820694Z" style="stroke: rgb(0, 0, 0); stroke-opacity: 0.2; fill: rgb(0, 0, 0); fill-opacity: 0.2; stroke-width: 1; opacity: 1;"/><path class="sankey-link" d="M20,400.66929228343696C220,400.66929228343696 220,347.3624944105494 420,347.3624944105494L420,347.85065580765377C220,347.85065580765377 220,401.1574536805413 20,401.1574536805413Z" style="stroke: rgb(0, 0, 0); stroke-opacity: 0.2; fill: rgb(0, 0, 0); fill-opacity: 0.2; stroke-width: 1; opacity: 1;"/><path class="sankey-link" d="M20,391.19554294441605C220,391.19554294441605 220,193.16248366264387 420,193.16248366264387L420,196.89246952070238C220,196.89246952070238 220,394.92552880247456 20,394.92552880247456Z" style="stroke: rgb(68, 68, 68); stroke-opacity: 1; fill: rgb(0, 0, 0); fill-opacity: 0.2; stroke-width: 0; opacity: 1;"/><path class="sankey-link" d="M20,399.90628490820694C220,399.90628490820694 220,295.896250867553 420,295.896250867553L420,296.4135389980363C220,296.4135389980363 220,400.4235730386902 20,400.4235730386902Z" style="stroke: rgb(0, 0, 0); stroke-opacity: 0.2; fill: rgb(0, 0, 0); fill-opacity: 0.2; stroke-width: 1; opacity: 1;"/><path class="sankey-link" d="M20,376.86088521535595C220,376.86088521535595 220,60.73768816339926 420,60.73768816339926L420,61.696685401092786C220,61.696685401092786 220,377.8198824530495 20,377.8198824530495Z" style="stroke: rgb(0, 0, 0); stroke-opacity: 0.2; fill: rgb(0, 0, 0); fill-opacity: 0.2; stroke-width: 1; opacity: 1;"/><path class="sankey-link" d="M20,403.5521585597294C80,403.5521585597294 80,551.0312351711124 140,551.0312351711124L140,552.9508151646017C80,552.9508151646017 80,405.47173855321876 20,405.47173855321876Z" style="stroke: rgb(68, 68, 68); stroke-opacity: 1; fill: rgb(0, 0, 0); fill-opacity: 0.2; stroke-width: 0; opacity: 1;"/></g><g class="sankey-node-set" style="cursor: move;"><g class="sankey-node" transform="translate(0.000,283.524)" style="opacity: 1;"><rect class="node-rect" width="20" height="14.465728934223819" style="stroke-width: 0.5; stroke: rgb(0, 0, 0); stroke-opacity: 1; fill: rgb(0, 0, 255); fill-opacity: 1;"/><text class="node-label" data-notex="1" x="0" y="0" text-anchor="start" transform="translate(23.25,10.73286446711191)" style="cursor: default; font-family: 'Open Sans', verdana, arial, sans-serif; font-size: 10px; fill: rgb(42, 63, 95); fill-opacity: 1; white-space: pre; text-shadow: white 1px 1px 1px, white -1px -1px 1px, white 1px -1px 1px, white -1px 1px 1px;">United Arab Emirates</text></g><g class="sankey-node" transform="translate(420.000,527.172)" style="opacity: 1;"><rect class="node-rect" width="20" height="0.5" style="stroke-width: 0.5; stroke: rgb(0, 0, 0); stroke-opacity: 1; fill: rgb(0, 0, 255); fill-opacity: 1;"/><text class="node-label" data-notex="1" x="0" y="0" text-anchor="end" transform="translate(-3.25,3.75)" style="cursor: default; font-family: 'Open Sans', verdana, arial, sans-serif; font-size: 10px; fill: rgb(42, 63, 95); fill-opacity: 1; white-space: pre; text-shadow: white 1px 1px 1px, white -1px -1px 1px, white 1px -1px 1px, white -1px 1px 1px;">Belgium</text></g><g class="sankey-node" transform="translate(420.000,84.862)" style="opacity: 1;"><rect class="node-rect" width="20" height="36.07283015730111" style="stroke-width: 0.5; stroke: rgb(0, 0, 0); stroke-opacity: 1; fill: rgb(0, 0, 255); fill-opacity: 1;"/><text class="node-label" data-notex="1" x="0" y="0" text-anchor="end" transform="translate(-3.25,21.536415078650556)" style="cursor: default; font-family: 'Open Sans', verdana, arial, sans-serif; font-size: 10px; fill: rgb(42, 63, 95); fill-opacity: 1; white-space: pre; text-shadow: white 1px 1px 1px, white -1px -1px 1px, white 1px -1px 1px, white -1px 1px 1px;">China</text></g><g class="sankey-node" transform="translate(420.000,421.301)" style="opacity: 1;"><rect class="node-rect" width="20" height="2.1450659214175403" style="stroke-width: 0.5; stroke: rgb(0, 0, 0); stroke-opacity: 1; fill: rgb(0, 0, 255); fill-opacity: 1;"/><text class="node-label" data-notex="1" x="0" y="0" text-anchor="end" transform="translate(-3.25,4.57253296070877)" style="cursor: default; font-family: 'Open Sans', verdana, arial, sans-serif; font-size: 10px; fill: rgb(42, 63, 95); fill-opacity: 1; white-space: pre; text-shadow: white 1px 1px 1px, white -1px -1px 1px, white 1px -1px 1px, white -1px 1px 1px;">France</text></g><g class="sankey-node" transform="translate(420.000,446.243)" style="opacity: 1;"><rect class="node-rect" width="20" height="4.999973941482267" style="stroke-width: 0.5; stroke: rgb(0, 0, 0); stroke-opacity: 1; fill: rgb(0, 0, 255); fill-opacity: 1;"/><text class="node-label" data-notex="1" x="0" y="0" text-anchor="end" transform="translate(-3.25,5.9999869707411335)" style="cursor: default; font-family: 'Open Sans', verdana, arial, sans-serif; font-size: 10px; fill: rgb(42, 63, 95); fill-opacity: 1; white-space: pre; text-shadow: white 1px 1px 1px, white -1px -1px 1px, white 1px -1px 1px, white -1px 1px 1px;">United Kingdom</text></g><g class="sankey-node" transform="translate(420.000,397.512)" style="opacity: 1;"><rect class="node-rect" width="20" height="0.9919694550034706" style="stroke-width: 0.5; stroke: rgb(0, 0, 0); stroke-opacity: 1; fill: rgb(0, 0, 255); fill-opacity: 1;"/><text class="node-label" data-notex="1" x="0" y="0" text-anchor="end" transform="translate(-3.25,3.9959847275017353)" style="cursor: default; font-family: 'Open Sans', verdana, arial, sans-serif; font-size: 10px; fill: rgb(42, 63, 95); fill-opacity: 1; white-space: pre; text-shadow: white 1px 1px 1px, white -1px -1px 1px, white 1px -1px 1px, white -1px 1px 1px;">Indonesia</text></g><g class="sankey-node" transform="translate(420.000,143.732)" style="opacity: 1;"><rect class="node-rect" width="20" height="18.658547386597547" style="stroke-width: 0.5; stroke: rgb(0, 0, 0); stroke-opacity: 1; fill: rgb(0, 0, 255); fill-opacity: 1;"/><text class="node-label" data-notex="1" x="0" y="0" text-anchor="end" transform="translate(-3.25,12.829273693298774)" style="cursor: default; font-family: 'Open Sans', verdana, arial, sans-serif; font-size: 10px; fill: rgb(42, 63, 95); fill-opacity: 1; white-space: pre; text-shadow: white 1px 1px 1px, white -1px -1px 1px, white 1px -1px 1px, white -1px 1px 1px;">India</text></g><g class="sankey-node" transform="translate(420.000,371.054)" style="opacity: 1;"><rect class="node-rect" width="20" height="3.6609787683703985" style="stroke-width: 0.5; stroke: rgb(0, 0, 0); stroke-opacity: 1; fill: rgb(0, 0, 255); fill-opacity: 1;"/><text class="node-label" data-notex="1" x="0" y="0" text-anchor="end" transform="translate(-3.25,5.330489384185199)" style="cursor: default; font-family: 'Open Sans', verdana, arial, sans-serif; font-size: 10px; fill: rgb(42, 63, 95); fill-opacity: 1; white-space: pre; text-shadow: white 1px 1px 1px, white -1px -1px 1px, white 1px -1px 1px, white -1px 1px 1px;">Italy</text></g><g class="sankey-node" transform="translate(420.000,24.454)" style="opacity: 1;"><rect class="node-rect" width="20" height="11.950876361936746" style="stroke-width: 0.5; stroke: rgb(0, 0, 0); stroke-opacity: 1; fill: rgb(0, 0, 255); fill-opacity: 1;"/><text class="node-label" data-notex="1" x="0" y="0" text-anchor="end" transform="translate(-3.25,9.475438180968373)" style="cursor: default; font-family: 'Open Sans', verdana, arial, sans-serif; font-size: 10px; fill: rgb(42, 63, 95); fill-opacity: 1; white-space: pre; text-shadow: white 1px 1px 1px, white -1px -1px 1px, white 1px -1px 1px, white -1px 1px 1px;">Japan</text></g><g class="sankey-node" transform="translate(420.000,227.813)" style="opacity: 1;"><rect class="node-rect" width="20" height="12.166157647117501" style="stroke-width: 0.5; stroke: rgb(0, 0, 0); stroke-opacity: 1; fill: rgb(0, 0, 255); fill-opacity: 1;"/><text class="node-label" data-notex="1" x="0" y="0" text-anchor="end" transform="translate(-3.25,9.58307882355875)" style="cursor: default; font-family: 'Open Sans', verdana, arial, sans-serif; font-size: 10px; fill: rgb(42, 63, 95); fill-opacity: 1; white-space: pre; text-shadow: white 1px 1px 1px, white -1px -1px 1px, white 1px -1px 1px, white -1px 1px 1px;">Korea, Republic of</text></g><g class="sankey-node" transform="translate(420.000,262.777)" style="opacity: 1;"><rect class="node-rect" width="20" height="8.689409154605073" style="stroke-width: 0.5; stroke: rgb(0, 0, 0); stroke-opacity: 1; fill: rgb(0, 0, 255); fill-opacity: 1;"/><text class="node-label" data-notex="1" x="0" y="0" text-anchor="end" transform="translate(-3.25,7.844704577302537)" style="cursor: default; font-family: 'Open Sans', verdana, arial, sans-serif; font-size: 10px; fill: rgb(42, 63, 95); fill-opacity: 1; white-space: pre; text-shadow: white 1px 1px 1px, white -1px -1px 1px, white 1px -1px 1px, white -1px 1px 1px;">Netherlands</text></g><g class="sankey-node" transform="translate(420.000,185.187)" style="opacity: 1;"><rect class="node-rect" width="20" height="19.829079396098933" style="stroke-width: 0.5; stroke: rgb(0, 0, 0); stroke-opacity: 1; fill: rgb(0, 0, 255); fill-opacity: 1;"/><text class="node-label" data-notex="1" x="0" y="0" text-anchor="end" transform="translate(-3.25,13.414539698049467)" style="cursor: default; font-family: 'Open Sans', verdana, arial, sans-serif; font-size: 10px; fill: rgb(42, 63, 95); fill-opacity: 1; white-space: pre; text-shadow: white 1px 1px 1px, white -1px -1px 1px, white 1px -1px 1px, white -1px 1px 1px;">Rest of World</text></g><g class="sankey-node" transform="translate(420.000,294.263)" style="opacity: 1;"><rect class="node-rect" width="20" height="3.3870867544146677" style="stroke-width: 0.5; stroke: rgb(0, 0, 0); stroke-opacity: 1; fill: rgb(0, 0, 255); fill-opacity: 1;"/><text class="node-label" data-notex="1" x="0" y="0" text-anchor="end" transform="translate(-3.25,5.193543377207334)" style="cursor: default; font-family: 'Open Sans', verdana, arial, sans-serif; font-size: 10px; fill: rgb(42, 63, 95); fill-opacity: 1; white-space: pre; text-shadow: white 1px 1px 1px, white -1px -1px 1px, white 1px -1px 1px, white -1px 1px 1px;">Singapore</text></g><g class="sankey-node" transform="translate(420.000,59.202)" style="opacity: 1;"><rect class="node-rect" width="20" height="2.8630166957281418" style="stroke-width: 0.5; stroke: rgb(0, 0, 0); stroke-opacity: 1; fill: rgb(0, 0, 255); fill-opacity: 1;"/><text class="node-label" data-notex="1" x="0" y="0" text-anchor="end" transform="translate(-3.25,4.931508347864071)" style="cursor: default; font-family: 'Open Sans', verdana, arial, sans-serif; font-size: 10px; fill: rgb(42, 63, 95); fill-opacity: 1; white-space: pre; text-shadow: white 1px 1px 1px, white -1px -1px 1px, white 1px -1px 1px, white -1px 1px 1px;">Thailand</text></g><g class="sankey-node" transform="translate(140.000,549.880)" style="opacity: 1;"><rect class="node-rect" width="20" height="24.85275169256454" style="stroke-width: 0.5; stroke: rgb(0, 0, 0); stroke-opacity: 1; fill: rgb(0, 0, 255); fill-opacity: 1;"/><text class="node-label" data-notex="1" x="0" y="0" text-anchor="start" transform="translate(23.25,15.92637584628227)" style="cursor: default; font-family: 'Open Sans', verdana, arial, sans-serif; font-size: 10px; fill: rgb(42, 63, 95); fill-opacity: 1; white-space: pre; text-shadow: white 1px 1px 1px, white -1px -1px 1px, white 1px -1px 1px, white -1px 1px 1px;">United States of America</text></g><g class="sankey-node" transform="translate(0.000,468.881)" style="opacity: 1;"><rect class="node-rect" width="20" height="7.5968892352008766" style="stroke-width: 0.5; stroke: rgb(0, 0, 0); stroke-opacity: 1; fill: rgb(0, 0, 255); fill-opacity: 1;"/><text class="node-label" data-notex="1" x="0" y="0" text-anchor="start" transform="translate(23.25,7.298444617600438)" style="cursor: default; font-family: 'Open Sans', verdana, arial, sans-serif; font-size: 10px; fill: rgb(42, 63, 95); fill-opacity: 1; white-space: pre; text-shadow: white 1px 1px 1px, white -1px -1px 1px, white 1px -1px 1px, white -1px 1px 1px;">Brazil</text></g><g class="sankey-node" transform="translate(420.000,474.040)" style="opacity: 1;"><rect class="node-rect" width="20" height="3.923398400107601" style="stroke-width: 0.5; stroke: rgb(0, 0, 0); stroke-opacity: 1; fill: rgb(0, 0, 255); fill-opacity: 1;"/><text class="node-label" data-notex="1" x="0" y="0" text-anchor="end" transform="translate(-3.25,5.4616992000538005)" style="cursor: default; font-family: 'Open Sans', verdana, arial, sans-serif; font-size: 10px; fill: rgb(42, 63, 95); fill-opacity: 1; white-space: pre; text-shadow: white 1px 1px 1px, white -1px -1px 1px, white 1px -1px 1px, white -1px 1px 1px;">Germany</text></g><g class="sankey-node" transform="translate(420.000,500.761)" style="opacity: 1;"><rect class="node-rect" width="20" height="3.6146588239511743" style="stroke-width: 0.5; stroke: rgb(0, 0, 0); stroke-opacity: 1; fill: rgb(0, 0, 255); fill-opacity: 1;"/><text class="node-label" data-notex="1" x="0" y="0" text-anchor="end" transform="translate(-3.25,5.307329411975587)" style="cursor: default; font-family: 'Open Sans', verdana, arial, sans-serif; font-size: 10px; fill: rgb(42, 63, 95); fill-opacity: 1; white-space: pre; text-shadow: white 1px 1px 1px, white -1px -1px 1px, white 1px -1px 1px, white -1px 1px 1px;">Spain</text></g><g class="sankey-node" transform="translate(420.000,574.619)" style="opacity: 1;"><rect class="node-rect" width="20" height="0.5" style="stroke-width: 0.5; stroke: rgb(0, 0, 0); stroke-opacity: 1; fill: rgb(0, 0, 255); fill-opacity: 1;"/><text class="node-label" data-notex="1" x="0" y="0" text-anchor="end" transform="translate(-3.25,3.75)" style="cursor: default; font-family: 'Open Sans', verdana, arial, sans-serif; font-size: 10px; fill: rgb(42, 63, 95); fill-opacity: 1; white-space: pre; text-shadow: white 1px 1px 1px, white -1px -1px 1px, white 1px -1px 1px, white -1px 1px 1px;">Panama</text></g><g class="sankey-node" transform="translate(420.000,550.002)" style="opacity: 1;"><rect class="node-rect" width="20" height="1.819739300854053" style="stroke-width: 0.5; stroke: rgb(0, 0, 0); stroke-opacity: 1; fill: rgb(0, 0, 255); fill-opacity: 1;"/><text class="node-label" data-notex="1" x="0" y="0" text-anchor="end" transform="translate(-3.25,4.4098696504270265)" style="cursor: default; font-family: 'Open Sans', verdana, arial, sans-serif; font-size: 10px; fill: rgb(42, 63, 95); fill-opacity: 1; white-space: pre; text-shadow: white 1px 1px 1px, white -1px -1px 1px, white 1px -1px 1px, white -1px 1px 1px;">Sweden</text></g><g class="sankey-node" transform="translate(280.000,554.648)" style="opacity: 1;"><rect class="node-rect" width="20" height="20.084342881760904" style="stroke-width: 0.5; stroke: rgb(0, 0, 0); stroke-opacity: 1; fill: rgb(0, 0, 255); fill-opacity: 1;"/><text class="node-label" data-notex="1" x="0" y="0" text-anchor="start" transform="translate(23.25,13.542171440880452)" style="cursor: default; font-family: 'Open Sans', verdana, arial, sans-serif; font-size: 10px; fill: rgb(42, 63, 95); fill-opacity: 1; white-space: pre; text-shadow: white 1px 1px 1px, white -1px -1px 1px, white 1px -1px 1px, white -1px 1px 1px;">Canada</text></g><g class="sankey-node" transform="translate(0.000,428.269)" style="opacity: 1;"><rect class="node-rect" width="20" height="17.814792506593847" style="stroke-width: 0.5; stroke: rgb(0, 0, 0); stroke-opacity: 1; fill: rgb(0, 0, 255); fill-opacity: 1;"/><text class="node-label" data-notex="1" x="0" y="0" text-anchor="start" transform="translate(23.25,12.407396253296923)" style="cursor: default; font-family: 'Open Sans', verdana, arial, sans-serif; font-size: 10px; fill: rgb(42, 63, 95); fill-opacity: 1; white-space: pre; text-shadow: white 1px 1px 1px, white -1px -1px 1px, white 1px -1px 1px, white -1px 1px 1px;">Iraq</text></g><g class="sankey-node" transform="translate(420.000,320.447)" style="opacity: 1;"><rect class="node-rect" width="20" height="2.7654593250091466" style="stroke-width: 0.5; stroke: rgb(0, 0, 0); stroke-opacity: 1; fill: rgb(0, 0, 255); fill-opacity: 1;"/><text class="node-label" data-notex="1" x="0" y="0" text-anchor="end" transform="translate(-3.25,4.882729662504573)" style="cursor: default; font-family: 'Open Sans', verdana, arial, sans-serif; font-size: 10px; fill: rgb(42, 63, 95); fill-opacity: 1; white-space: pre; text-shadow: white 1px 1px 1px, white -1px -1px 1px, white 1px -1px 1px, white -1px 1px 1px;">Greece</text></g><g class="sankey-node" transform="translate(420.000,346.010)" style="opacity: 1;"><rect class="node-rect" width="20" height="2.246984810323738" style="stroke-width: 0.5; stroke: rgb(0, 0, 0); stroke-opacity: 1; fill: rgb(0, 0, 255); fill-opacity: 1;"/><text class="node-label" data-notex="1" x="0" y="0" text-anchor="end" transform="translate(-3.25,4.623492405161869)" style="cursor: default; font-family: 'Open Sans', verdana, arial, sans-serif; font-size: 10px; fill: rgb(42, 63, 95); fill-opacity: 1; white-space: pre; text-shadow: white 1px 1px 1px, white -1px -1px 1px, white 1px -1px 1px, white -1px 1px 1px;">Poland</text></g><g class="sankey-node" transform="translate(0.000,241.653)" style="opacity: 1;"><rect class="node-rect" width="20" height="9.913623199159218" style="stroke-width: 0.5; stroke: rgb(0, 0, 0); stroke-opacity: 1; fill: rgb(0, 0, 255); fill-opacity: 1;"/><text class="node-label" data-notex="1" x="0" y="0" text-anchor="start" transform="translate(23.25,8.45681159957961)" style="cursor: default; font-family: 'Open Sans', verdana, arial, sans-serif; font-size: 10px; fill: rgb(42, 63, 95); fill-opacity: 1; white-space: pre; text-shadow: white 1px 1px 1px, white -1px -1px 1px, white 1px -1px 1px, white -1px 1px 1px;">Kuwait</text></g><g class="sankey-node" transform="translate(0.000,499.275)" style="opacity: 1;"><rect class="node-rect" width="20" height="10.345572081791488" style="stroke-width: 0.5; stroke: rgb(0, 0, 0); stroke-opacity: 1; fill: rgb(0, 0, 255); fill-opacity: 1;"/><text class="node-label" data-notex="1" x="0" y="0" text-anchor="start" transform="translate(23.25,8.672786040895744)" style="cursor: default; font-family: 'Open Sans', verdana, arial, sans-serif; font-size: 10px; fill: rgb(42, 63, 95); fill-opacity: 1; white-space: pre; text-shadow: white 1px 1px 1px, white -1px -1px 1px, white 1px -1px 1px, white -1px 1px 1px;">Nigeria</text></g><g class="sankey-node" transform="translate(0.000,532.417)" style="opacity: 1;"><rect class="node-rect" width="20" height="10.265113740911602" style="stroke-width: 0.5; stroke: rgb(0, 0, 0); stroke-opacity: 1; fill: rgb(0, 0, 255); fill-opacity: 1;"/><text class="node-label" data-notex="1" x="0" y="0" text-anchor="start" transform="translate(23.25,8.632556870455801)" style="cursor: default; font-family: 'Open Sans', verdana, arial, sans-serif; font-size: 10px; fill: rgb(42, 63, 95); fill-opacity: 1; white-space: pre; text-shadow: white 1px 1px 1px, white -1px -1px 1px, white 1px -1px 1px, white -1px 1px 1px;">Norway</text></g><g class="sankey-node" transform="translate(0.000,320.787)" style="opacity: 1;"><rect class="node-rect" width="20" height="27.861620448611234" style="stroke-width: 0.5; stroke: rgb(0, 0, 0); stroke-opacity: 1; fill: rgb(0, 0, 255); fill-opacity: 1;"/><text class="node-label" data-notex="1" x="0" y="0" text-anchor="start" transform="translate(23.25,17.430810224305617)" style="cursor: default; font-family: 'Open Sans', verdana, arial, sans-serif; font-size: 10px; fill: rgb(42, 63, 95); fill-opacity: 1; white-space: pre; text-shadow: white 1px 1px 1px, white -1px -1px 1px, white 1px -1px 1px, white -1px 1px 1px;">Russian Federation</text></g><g class="sankey-node" transform="translate(420.000,0.000)" style="opacity: 1;"><rect class="node-rect" width="20" height="1.6566920670211862" style="stroke-width: 0.5; stroke: rgb(0, 0, 0); stroke-opacity: 1; fill: rgb(0, 0, 255); fill-opacity: 1;"/><text class="node-label" data-notex="1" x="0" y="0" text-anchor="end" transform="translate(-3.25,4.328346033510593)" style="cursor: default; font-family: 'Open Sans', verdana, arial, sans-serif; font-size: 10px; fill: rgb(42, 63, 95); fill-opacity: 1; white-space: pre; text-shadow: white 1px 1px 1px, white -1px -1px 1px, white 1px -1px 1px, white -1px 1px 1px;">Belarus</text></g><g class="sankey-node" transform="translate(0.000,371.446)" style="opacity: 1;"><rect class="node-rect" width="20" height="34.025850092938924" style="stroke-width: 0.5; stroke: rgb(0, 0, 0); stroke-opacity: 1; fill: rgb(0, 0, 255); fill-opacity: 1;"/><text class="node-label" data-notex="1" x="0" y="0" text-anchor="start" transform="translate(23.25,20.512925046469462)" style="cursor: default; font-family: 'Open Sans', verdana, arial, sans-serif; font-size: 10px; fill: rgb(42, 63, 95); fill-opacity: 1; white-space: pre; text-shadow: white 1px 1px 1px, white -1px -1px 1px, white 1px -1px 1px, white -1px 1px 1px;">Saudi Arabia</text></g></g></g><defs id="topdefs-0cc9fb"><g class="clips"/></defs><g class="layer-above"><g class="imagelayer"/><g class="shapelayer"/></g><g class="infolayer"><g class="g-gtitle"><text class="gtitle" x="30" y="50" text-anchor="start" dy="0em" style="font-family: 'Open Sans', verdana, arial, sans-serif; font-size: 14px; fill: rgb(42, 63, 95); opacity: 1; font-weight: normal; white-space: pre;">Crude Oil</text></g><g class="first-render"/></g></svg>