<svg class="main-svg" xmlns="http://www.w3.org/2000/svg" xmlns:xlink="http://www.w3.org/1999/xlink" width="600" height="800" style="" viewBox="0 0 600 800"><rect x="0" y="0" width="600" height="800" style="fill: rgb(255, 255, 255); fill-opacity: 1;"/><defs id="defs-44310b"><g class="clips"/><g class="gradients"/><g class="patterns"/></defs><g class="bglayer"/><g class="layer-below"><g class="imagelayer"/><g class="shapelayer"/></g><g class="cartesianlayer"/><g class="polarlayer"/><g class="smithlayer"/><g class="ternarylayer"/><g class="geolayer"/><g class="funnelarealayer"/><g class="pielayer"/><g class="iciclelayer"/><g class="treemaplayer"/><g class="sunburstlayer"/><g class="glimages"/><g class="sankey" transform="translate(80,100)matrix(1 0 0 1 0 0)" style="box-sizing: content-box; position: absolute; left: 0px; shape-rendering: geometricprecision; pointer-events: auto;"><g class="sankey-links" style="fill: none;"><path class="sankey-link" d="M20,293.78211790907915C220,293.78211790907915 220,418.1502347968716 420,418.1502347968716L420,418.35107762657697C220,418.35107762657697 220,293.9829607387845 20,293.9829607387845Z" style="stroke: rgb(0, 0, 0); stroke-opacity: 0.2; fill: rgb(0, 0, 0); fill-opacity: 0.2; stroke-width: 1; opacity: 1;"/><path class="sankey-link" d="M20,286.50441397978983C220,286.50441397978983 220,161.17926081859142 420,161.17926081859142L420,162.22412281559363C220,162.22412281559363 220,287.5492759767921 20,287.5492759767921Z" style="stroke: rgb(68, 68, 68); stroke-opacity: 1; fill: rgb(0, 0, 0); fill-opacity: 0.2; stroke-width: 0; opacity: 1;"/><path class="sankey-link" d="M20,293.6180358801218C220,293.6180358801218 220,342.041485290404 420,342.041485290404L420,342.04148552178765C220,342.04148552178765 220,293.61803611150543 20,293.61803611150543Z" style="stroke: rgb(0, 0, 0); stroke-opacity: 0.2; fill: rgb(0, 0, 0); fill-opacity: 0.2; stroke-width: 1; opacity: 1;"/><path class="sankey-link" d="M20,293.9829607387844C220,293.9829607387844 220,521.3512105999032 420,521.3512105999032L420,521.3512112536289C220,521.3512112536289 220,293.9829613925102 20,293.9829613925102Z" style="stroke: rgb(0, 0, 0); stroke-opacity: 0.2; fill: rgb(0, 0, 0); fill-opacity: 0.2; stroke-width: 1; opacity: 1;"/><path class="sankey-link" d="M20,287.5492759767921C220,287.5492759767921 220,206.86284129352654 420,206.86284129352654L420,208.5913031470292C220,208.5913031470292 220,289.2777378302948 20,289.2777378302948Z" style="stroke: rgb(68, 68, 68); stroke-opacity: 1; fill: rgb(0, 0, 0); fill-opacity: 0.2; stroke-width: 0; opacity: 1;"/><path class="sankey-link" d="M20,289.2777378302947C220,289.2777378302947 220,244.8072789782716 420,244.8072789782716L420,248.19920926120045C220,248.19920926120045 220,292.6696681132236 20,292.6696681132236Z" style="stroke: rgb(68, 68, 68); stroke-opacity: 1; fill: rgb(0, 0, 0); fill-opacity: 0.2; stroke-width: 0; opacity: 1;"/><path class="sankey-link" d="M20,292.6696681132237C220,292.6696681132237 220,279.0125083302405 420,279.0125083302405L420,279.9608744796866C220,279.9608744796866 220,293.61803426266977 20,293.61803426266977Z" style="stroke: rgb(0, 0, 0); stroke-opacity: 0.2; fill: rgb(0, 0, 0); fill-opacity: 0.2; stroke-width: 1; opacity: 1;"/><path class="sankey-link" d="M20,293.6180342626697C220,293.6180342626697 220,312.216205581418 420,312.216205581418L420,312.2162071988701C220,312.2162071988701 220,293.6180358801218 20,293.6180358801218Z" style="stroke: rgb(0, 0, 0); stroke-opacity: 0.2; fill: rgb(0, 0, 0); fill-opacity: 0.2; stroke-width: 1; opacity: 1;"/><path class="sankey-link" d="M20,255.0763480005386C220,255.0763480005386 220,38.59585252083866 420,38.59585252083866L420,68.18108287324722C220,68.18108287324722 220,284.6615783529471 20,284.6615783529471Z" style="stroke: rgb(68, 68, 68); stroke-opacity: 1; fill: rgb(0, 0, 0); fill-opacity: 0.2; stroke-width: 0; opacity: 1;"/><path class="sankey-link" d="M20,284.6615783529471C220,284.6615783529471 220,107.70513962826791 420,107.70513962826791L420,108.65252206669322C220,108.65252206669322 220,285.6089607913724 20,285.6089607913724Z" style="stroke: rgb(0, 0, 0); stroke-opacity: 0.2; fill: rgb(0, 0, 0); fill-opacity: 0.2; stroke-width: 1; opacity: 1;"/><path class="sankey-link" d="M20,285.60896079137245C220,285.60896079137245 220,133.49831756095188 420,133.49831756095188L420,134.3937707493693C220,134.3937707493693 220,286.50441397978983 20,286.50441397978983Z" style="stroke: rgb(0, 0, 0); stroke-opacity: 0.2; fill: rgb(0, 0, 0); fill-opacity: 0.2; stroke-width: 1; opacity: 1;"/><path class="sankey-link" d="M20,254.7034116602065C220,254.7034116602065 220,0.6992560419272272 420,0.6992560419272272L420,1.0721923822592465C220,1.0721923822592465 220,255.07634800053856 20,255.07634800053856Z" style="stroke: rgb(0, 0, 0); stroke-opacity: 0.2; fill: rgb(0, 0, 0); fill-opacity: 0.2; stroke-width: 1; opacity: 1;"/><path class="sankey-link" d="M20,293.9829613925103C80,293.9829613925103 80,555.671779463278 140,555.671779463278L140,555.6842914514555C80,555.6842914514555 80,293.99547338068766 20,293.99547338068766Z" style="stroke: rgb(0, 0, 0); stroke-opacity: 0.2; fill: rgb(0, 0, 0); fill-opacity: 0.2; stroke-width: 1; opacity: 1;"/><path class="sankey-link" d="M20,293.6180361115055C220,293.6180361115055 220,368.20686403971837 420,368.20686403971837L420,368.370945837292C220,368.370945837292 220,293.78211790907915 20,293.78211790907915Z" style="stroke: rgb(0, 0, 0); stroke-opacity: 0.2; fill: rgb(0, 0, 0); fill-opacity: 0.2; stroke-width: 1; opacity: 1;"/><path class="sankey-link" d="M160,564.8486071050387C290,564.8486071050387 290,418.454008219231 420,418.454008219231L420,418.67321093880344C290,418.67321093880344 290,565.0678098246111 160,565.0678098246111Z" style="stroke: rgb(0, 0, 0); stroke-opacity: 0.2; fill: rgb(0, 0, 0); fill-opacity: 0.2; stroke-width: 1; opacity: 1;"/><path class="sankey-link" d="M160,567.1531437294532C220,567.1531437294532 220,563.2978914178245 280,563.2978914178245L280,565.5164855006876C220,565.5164855006876 220,569.3717378123163 160,569.3717378123163Z" style="stroke: rgb(68, 68, 68); stroke-opacity: 1; fill: rgb(0, 0, 0); fill-opacity: 0.2; stroke-width: 0; opacity: 1;"/><path class="sankey-link" d="M160,559.0777386397469C290,559.0777386397469 290,181.72487799985404 420,181.72487799985404L420,182.33758073675628C290,182.33758073675628 290,559.6904413766492 160,559.6904413766492Z" style="stroke: rgb(0, 0, 0); stroke-opacity: 0.2; fill: rgb(0, 0, 0); fill-opacity: 0.2; stroke-width: 1; opacity: 1;"/><path class="sankey-link" d="M160,566.9509491332914C290,566.9509491332914 290,552.9566168553578 420,552.9566168553578L420,553.1588114515195C290,553.1588114515195 290,567.1531437294531 160,567.1531437294531Z" style="stroke: rgb(0, 0, 0); stroke-opacity: 0.2; fill: rgb(0, 0, 0); fill-opacity: 0.2; stroke-width: 1; opacity: 1;"/><path class="sankey-link" d="M160,565.0678098246113C290,565.0678098246113 290,445.22520604794533 420,445.22520604794533L420,445.44585701827214C290,445.44585701827214 290,565.288460794938 160,565.288460794938Z" style="stroke: rgb(0, 0, 0); stroke-opacity: 0.2; fill: rgb(0, 0, 0); fill-opacity: 0.2; stroke-width: 1; opacity: 1;"/><path class="sankey-link" d="M160,564.3748169965677C290,564.3748169965677 290,344.2424850568237 420,344.2424850568237L420,344.6407415356368C290,344.6407415356368 290,564.7730734753807 160,564.7730734753807Z" style="stroke: rgb(0, 0, 0); stroke-opacity: 0.2; fill: rgb(0, 0, 0); fill-opacity: 0.2; stroke-width: 1; opacity: 1;"/><path class="sankey-link" d="M160,565.7507319218C290,565.7507319218 290,524.4268684518898 420,524.4268684518898L420,525.6270856633811C290,525.6270856633811 290,566.9509491332913 160,566.9509491332913Z" style="stroke: rgb(68, 68, 68); stroke-opacity: 1; fill: rgb(0, 0, 0); fill-opacity: 0.2; stroke-width: 0; opacity: 1;"/><path class="sankey-link" d="M160,564.7882104359178C290,564.7882104359178 290,394.52371797547386 420,394.52371797547386L420,394.58411464459476C290,394.58411464459476 290,564.8486071050388 160,564.8486071050388Z" style="stroke: rgb(0, 0, 0); stroke-opacity: 0.2; fill: rgb(0, 0, 0); fill-opacity: 0.2; stroke-width: 1; opacity: 1;"/><path class="sankey-link" d="M160,559.6904413766493C290,559.6904413766493 290,218.97814803215363 420,218.97814803215363L420,220.13328046109348C290,220.13328046109348 290,560.8455738055892 160,560.8455738055892Z" style="stroke: rgb(68, 68, 68); stroke-opacity: 1; fill: rgb(0, 0, 0); fill-opacity: 0.2; stroke-width: 0; opacity: 1;"/><path class="sankey-link" d="M160,565.288460794938C290,565.288460794938 290,471.75911263690233 420,471.75911263690233L420,472.16282320870226C290,472.16282320870226 290,565.6921713667381 160,565.6921713667381Z" style="stroke: rgb(0, 0, 0); stroke-opacity: 0.2; fill: rgb(0, 0, 0); fill-opacity: 0.2; stroke-width: 1; opacity: 1;"/><path class="sankey-link" d="M160,560.8455738055892C290,560.8455738055892 290,253.48919017230847 420,253.48919017230847L420,253.74338578850185C290,253.74338578850185 290,561.0997694217825 160,561.0997694217825Z" style="stroke: rgb(0, 0, 0); stroke-opacity: 0.2; fill: rgb(0, 0, 0); fill-opacity: 0.2; stroke-width: 1; opacity: 1;"/><path class="sankey-link" d="M160,561.0997694217828C290,561.0997694217828 290,286.2977841332761 420,286.2977841332761L420,288.2983560641436C290,288.2983560641436 290,563.1003413526502 160,563.1003413526502Z" style="stroke: rgb(68, 68, 68); stroke-opacity: 1; fill: rgb(0, 0, 0); fill-opacity: 0.2; stroke-width: 0; opacity: 1;"/><path class="sankey-link" d="M160,563.1003413526503C290,563.1003413526503 290,317.0682264164139 420,317.0682264164139L420,318.3427020603312C290,318.3427020603312 290,564.3748169965677 160,564.3748169965677Z" style="stroke: rgb(68, 68, 68); stroke-opacity: 1; fill: rgb(0, 0, 0); fill-opacity: 0.2; stroke-width: 0; opacity: 1;"/><path class="sankey-link" d="M160,565.6921713667381C290,565.6921713667381 290,497.72652989256443 420,497.72652989256443L420,497.7850904476265C290,497.7850904476265 290,565.7507319218001 160,565.7507319218001Z" style="stroke: rgb(0, 0, 0); stroke-opacity: 0.2; fill: rgb(0, 0, 0); fill-opacity: 0.2; stroke-width: 1; opacity: 1;"/><path class="sankey-link" d="M160,556.2474641767606C290,556.2474641767606 290,81.98360473350365 420,81.98360473350365L420,83.91825934038155C290,83.91825934038155 290,558.1821187836385 160,558.1821187836385Z" style="stroke: rgb(68, 68, 68); stroke-opacity: 1; fill: rgb(0, 0, 0); fill-opacity: 0.2; stroke-width: 0; opacity: 1;"/><path class="sankey-link" d="M160,558.1821187836385C290,558.1821187836385 290,109.47600334532447 420,109.47600334532447L420,109.86622992915463C290,109.86622992915463 290,558.5723453674686 160,558.5723453674686Z" style="stroke: rgb(0, 0, 0); stroke-opacity: 0.2; fill: rgb(0, 0, 0); fill-opacity: 0.2; stroke-width: 1; opacity: 1;"/><path class="sankey-link" d="M160,569.3717378123164C290,569.3717378123164 290,577.9466727317142 420,577.9466727317142L420,577.970162954359C290,577.970162954359 290,569.3952280349612 160,569.3952280349612Z" style="stroke: rgb(0, 0, 0); stroke-opacity: 0.2; fill: rgb(0, 0, 0); fill-opacity: 0.2; stroke-width: 1; opacity: 1;"/><path class="sankey-link" d="M160,558.5723453674689C290,558.5723453674689 290,135.2921413799615 420,135.2921413799615L420,135.79753465223985C290,135.79753465223985 290,559.0777386397472 160,559.0777386397472Z" style="stroke: rgb(0, 0, 0); stroke-opacity: 0.2; fill: rgb(0, 0, 0); fill-opacity: 0.2; stroke-width: 1; opacity: 1;"/><path class="sankey-link" d="M160,555.4809636391731C290,555.4809636391731 290,2.876375484497691 420,2.876375484497691L420,3.642876022085197C290,3.642876022085197 290,556.2474641767606 160,556.2474641767606Z" style="stroke: rgb(0, 0, 0); stroke-opacity: 0.2; fill: rgb(0, 0, 0); fill-opacity: 0.2; stroke-width: 1; opacity: 1;"/><path class="sankey-link" d="M160,564.7730734753808C290,564.7730734753808 290,369.54716816680434 420,369.54716816680434L420,369.56230512734146C290,369.56230512734146 290,564.7882104359179 160,564.7882104359179Z" style="stroke: rgb(0, 0, 0); stroke-opacity: 0.2; fill: rgb(0, 0, 0); fill-opacity: 0.2; stroke-width: 1; opacity: 1;"/><path class="sankey-link" d="M300,562.7574572305662C360,562.7574572305662 360,182.3375807367562 420,182.3375807367562L420,182.3927971174606C360,182.3927971174606 360,562.8126736112706 300,562.8126736112706Z" style="stroke: rgb(0, 0, 0); stroke-opacity: 0.2; fill: rgb(0, 0, 0); fill-opacity: 0.2; stroke-width: 1; opacity: 1;"/><path class="sankey-link" d="M300,563.1887874225341C360,563.1887874225341 360,553.1588114515195 420,553.1588114515195L420,553.1681744012584C360,553.1681744012584 360,563.1981503722731 300,563.1981503722731Z" style="stroke: rgb(0, 0, 0); stroke-opacity: 0.2; fill: rgb(0, 0, 0); fill-opacity: 0.2; stroke-width: 1; opacity: 1;"/><path class="sankey-link" d="M300,563.0005779180512C360,563.0005779180512 360,445.445857018272 420,445.445857018272L420,445.47911331188027C360,445.47911331188027 360,563.0338342116595 300,563.0338342116595Z" style="stroke: rgb(0, 0, 0); stroke-opacity: 0.2; fill: rgb(0, 0, 0); fill-opacity: 0.2; stroke-width: 1; opacity: 1;"/><path class="sankey-link" d="M300,563.0005755662464C360,563.0005755662464 360,344.6407415356367 420,344.6407415356367L420,344.64074388744143C360,344.64074388744143 360,563.0005779180512 300,563.0005779180512Z" style="stroke: rgb(0, 0, 0); stroke-opacity: 0.2; fill: rgb(0, 0, 0); fill-opacity: 0.2; stroke-width: 1; opacity: 1;"/><path class="sankey-link" d="M300,563.1027523311003C360,563.1027523311003 360,525.627085663381 420,525.627085663381L420,525.7131207548148C360,525.7131207548148 360,563.1887874225341 300,563.1887874225341Z" style="stroke: rgb(0, 0, 0); stroke-opacity: 0.2; fill: rgb(0, 0, 0); fill-opacity: 0.2; stroke-width: 1; opacity: 1;"/><path class="sankey-link" d="M300,562.8126736112706C360,562.8126736112706 360,220.13328046109345 420,220.13328046109345L420,220.18964327180052C360,220.18964327180052 360,562.8690364219776 300,562.8690364219776Z" style="stroke: rgb(0, 0, 0); stroke-opacity: 0.2; fill: rgb(0, 0, 0); fill-opacity: 0.2; stroke-width: 1; opacity: 1;"/><path class="sankey-link" d="M300,563.0338342116594C360,563.0338342116594 360,472.16282320870226 420,472.16282320870226L420,472.2317413281432C360,472.2317413281432 360,563.1027523311003 300,563.1027523311003Z" style="stroke: rgb(0, 0, 0); stroke-opacity: 0.2; fill: rgb(0, 0, 0); fill-opacity: 0.2; stroke-width: 1; opacity: 1;"/><path class="sankey-link" d="M300,562.8690364219777C360,562.8690364219777 360,253.74338578850177 420,253.74338578850177L420,253.74646486465684C360,253.74646486465684 360,562.8721154981328 300,562.8721154981328Z" style="stroke: rgb(0, 0, 0); stroke-opacity: 0.2; fill: rgb(0, 0, 0); fill-opacity: 0.2; stroke-width: 1; opacity: 1;"/><path class="sankey-link" d="M300,562.8721154981328C360,562.8721154981328 360,288.2983560641435 420,288.2983560641435L420,288.30530755234065C360,288.30530755234065 360,562.8790669863298 300,562.8790669863298Z" style="stroke: rgb(0, 0, 0); stroke-opacity: 0.2; fill: rgb(0, 0, 0); fill-opacity: 0.2; stroke-width: 1; opacity: 1;"/><path class="sankey-link" d="M300,562.8790669863297C360,562.8790669863297 360,318.34270206033125 420,318.34270206033125L420,318.46421064024787C360,318.46421064024787 360,563.0005755662464 300,563.0005755662464Z" style="stroke: rgb(0, 0, 0); stroke-opacity: 0.2; fill: rgb(0, 0, 0); fill-opacity: 0.2; stroke-width: 1; opacity: 1;"/><path class="sankey-link" d="M300,562.7453112703139C360,562.7453112703139 360,83.91825934038152 420,83.91825934038152L420,83.93040530063368C360,83.93040530063368 360,562.757457230566 300,562.757457230566Z" style="stroke: rgb(0, 0, 0); stroke-opacity: 0.2; fill: rgb(0, 0, 0); fill-opacity: 0.2; stroke-width: 1; opacity: 1;"/><path class="sankey-link" d="M 140 563.1981503722732 L135 563.1981503722732A24.772012582086177 24.772012582086177 0 0 0 110.22798741791382 587.9701629543592L110.22798741791382 592.9701629543592A24.772012582086177 24.772012582086177 0 0 0 135 617.7421755364454L305 617.7421755364454A24.772012582086177 24.772012582086177 0 0 0 329.7720125820862 592.9701629543592L329.7720125820862 587.9701629543592A24.772012582086177 24.772012582086177 0 0 0 305 563.1981503722732L300 563.1981503722732L300 577.9701629543592L305 577.9701629543592A10 10 0 0 1 315 587.9701629543592L315 592.9701629543592A10 10 0 0 1 305 602.9701629543594L135 602.9701629543594A10 10 0 0 1 125 592.9701629543592L125 587.9701629543592A10 10 0 0 1 135 577.9701629543592L140 577.9701629543592Z" style="stroke: rgb(68, 68, 68); stroke-opacity: 1; fill: rgb(0, 0, 0); fill-opacity: 0.2; stroke-width: 0; opacity: 1;"/><path class="sankey-link" d="M20,350.4365845586223C220,350.4365845586223 220,162.25933972731366 420,162.25933972731366L420,166.4991023227613C220,166.4991023227613 220,354.6763471540699 20,354.6763471540699Z" style="stroke: rgb(68, 68, 68); stroke-opacity: 1; fill: rgb(0, 0, 0); fill-opacity: 0.2; stroke-width: 0; opacity: 1;"/><path class="sankey-link" d="M20,363.46083412511524C220,363.46083412511524 220,549.2792409070915 420,549.2792409070915L420,549.4209794426866C220,549.4209794426866 220,363.60257266071034 20,363.60257266071034Z" style="stroke: rgb(0, 0, 0); stroke-opacity: 0.2; fill: rgb(0, 0, 0); fill-opacity: 0.2; stroke-width: 1; opacity: 1;"/><path class="sankey-link" d="M20,362.02956592225365C220,362.02956592225365 220,442.8477416346474 420,442.8477416346474L420,443.24349438166155C220,443.24349438166155 220,362.4253186692678 20,362.4253186692678Z" style="stroke: rgb(0, 0, 0); stroke-opacity: 0.2; fill: rgb(0, 0, 0); fill-opacity: 0.2; stroke-width: 1; opacity: 1;"/><path class="sankey-link" d="M20,360.79345212076504C220,360.79345212076504 220,342.0414855217876 420,342.0414855217876L420,342.232422515877C220,342.232422515877 220,360.9843891148544 20,360.9843891148544Z" style="stroke: rgb(0, 0, 0); stroke-opacity: 0.2; fill: rgb(0, 0, 0); fill-opacity: 0.2; stroke-width: 1; opacity: 1;"/><path class="sankey-link" d="M20,360.98438911485437C220,360.98438911485437 220,393.1284252796183 420,393.1284252796183L420,394.1736020870175C220,394.1736020870175 220,362.0295659222536 20,362.0295659222536Z" style="stroke: rgb(68, 68, 68); stroke-opacity: 1; fill: rgb(0, 0, 0); fill-opacity: 0.2; stroke-width: 0; opacity: 1;"/><path class="sankey-link" d="M20,354.67634715406996C220,354.67634715406996 220,209.14787500718282 420,209.14787500718282L420,213.2982341943236C220,213.2982341943236 220,358.82670634121075 20,358.82670634121075Z" style="stroke: rgb(68, 68, 68); stroke-opacity: 1; fill: rgb(0, 0, 0); fill-opacity: 0.2; stroke-width: 0; opacity: 1;"/><path class="sankey-link" d="M20,362.4253186692677C220,362.4253186692677 220,469.0519690531035 420,469.0519690531035L420,470.0874845089509C220,470.0874845089509 220,363.4608341251151 20,363.4608341251151Z" style="stroke: rgb(68, 68, 68); stroke-opacity: 1; fill: rgb(0, 0, 0); fill-opacity: 0.2; stroke-width: 0; opacity: 1;"/><path class="sankey-link" d="M20,358.82670634121075C220,358.82670634121075 220,248.219564114016 420,248.219564114016L420,248.3910006880718C220,248.3910006880718 220,358.9981429152666 20,358.9981429152666Z" style="stroke: rgb(0, 0, 0); stroke-opacity: 0.2; fill: rgb(0, 0, 0); fill-opacity: 0.2; stroke-width: 1; opacity: 1;"/><path class="sankey-link" d="M20,358.9981429152666C220,358.9981429152666 220,280.3646669273471 420,280.3646669273471L420,281.71101128059684C220,281.71101128059684 220,360.34448726851633 20,360.34448726851633Z" style="stroke: rgb(68, 68, 68); stroke-opacity: 1; fill: rgb(0, 0, 0); fill-opacity: 0.2; stroke-width: 0; opacity: 1;"/><path class="sankey-link" d="M20,360.34448726851633C220,360.34448726851633 220,312.2162071988701 420,312.2162071988701L420,312.66517205111876C220,312.66517205111876 220,360.793452120765 20,360.793452120765Z" style="stroke: rgb(0, 0, 0); stroke-opacity: 0.2; fill: rgb(0, 0, 0); fill-opacity: 0.2; stroke-width: 1; opacity: 1;"/><path class="sankey-link" d="M20,349.6891637315606C220,349.6891637315606 220,71.80444328080867 420,71.80444328080867L420,72.33063813400929C220,72.33063813400929 220,350.21535858476125 20,350.21535858476125Z" style="stroke: rgb(0, 0, 0); stroke-opacity: 0.2; fill: rgb(0, 0, 0); fill-opacity: 0.2; stroke-width: 1; opacity: 1;"/><path class="sankey-link" d="M20,350.2153585847612C220,350.2153585847612 220,108.65252206669318 420,108.65252206669318L420,108.87374804055428C220,108.87374804055428 220,350.4365845586223 20,350.4365845586223Z" style="stroke: rgb(0, 0, 0); stroke-opacity: 0.2; fill: rgb(0, 0, 0); fill-opacity: 0.2; stroke-width: 1; opacity: 1;"/><path class="sankey-link" d="M20,349.4181817343144C220,349.4181817343144 220,1.4807020687491386 420,1.4807020687491386L420,1.7516840659953707C220,1.7516840659953707 220,349.68916373156065 20,349.68916373156065Z" style="stroke: rgb(0, 0, 0); stroke-opacity: 0.2; fill: rgb(0, 0, 0); fill-opacity: 0.2; stroke-width: 1; opacity: 1;"/><path class="sankey-link" d="M20,363.60257266071034C80,363.60257266071034 80,558.3118072016141 140,558.3118072016141L140,559.5671814130847C80,559.5671814130847 80,364.8579468721809 20,364.8579468721809Z" style="stroke: rgb(68, 68, 68); stroke-opacity: 1; fill: rgb(0, 0, 0); fill-opacity: 0.2; stroke-width: 0; opacity: 1;"/><path class="sankey-link" d="M20,225.11957440377975C220,225.11957440377975 220,159.36365480451659 420,159.36365480451659L420,161.17926081859142C220,161.17926081859142 220,226.93518041785458 20,226.93518041785458Z" style="stroke: rgb(68, 68, 68); stroke-opacity: 1; fill: rgb(0, 0, 0); fill-opacity: 0.2; stroke-width: 0; opacity: 1;"/><path class="sankey-link" d="M20,230.93532118594536C220,230.93532118594536 220,342.0303307925246 420,342.0303307925246L420,342.04148529040395C220,342.04148529040395 220,230.9464756838248 20,230.9464756838248Z" style="stroke: rgb(0, 0, 0); stroke-opacity: 0.2; fill: rgb(0, 0, 0); fill-opacity: 0.2; stroke-width: 1; opacity: 1;"/><path class="sankey-link" d="M20,226.93518041785458C220,226.93518041785458 220,205.95891726973716 420,205.95891726973716L420,206.8628412935265C220,206.8628412935265 220,227.8391044416439 20,227.8391044416439Z" style="stroke: rgb(0, 0, 0); stroke-opacity: 0.2; fill: rgb(0, 0, 0); fill-opacity: 0.2; stroke-width: 1; opacity: 1;"/><path class="sankey-link" d="M20,227.83910444164388C220,227.83910444164388 220,243.7557634240773 420,243.7557634240773L420,244.80727897827157C220,244.80727897827157 220,228.89061999583816 20,228.89061999583816Z" style="stroke: rgb(68, 68, 68); stroke-opacity: 1; fill: rgb(0, 0, 0); fill-opacity: 0.2; stroke-width: 0; opacity: 1;"/><path class="sankey-link" d="M20,228.89061999583822C220,228.89061999583822 220,277.3125850169338 420,277.3125850169338L420,279.0125083302405C220,279.0125083302405 220,230.59054330914495 20,230.59054330914495Z" style="stroke: rgb(68, 68, 68); stroke-opacity: 1; fill: rgb(0, 0, 0); fill-opacity: 0.2; stroke-width: 0; opacity: 1;"/><path class="sankey-link" d="M20,230.59054330914495C220,230.59054330914495 220,311.87142770461764 420,311.87142770461764L420,312.2162055814181C220,312.2162055814181 220,230.93532118594538 20,230.93532118594538Z" style="stroke: rgb(0, 0, 0); stroke-opacity: 0.2; fill: rgb(0, 0, 0); fill-opacity: 0.2; stroke-width: 1; opacity: 1;"/><path class="sankey-link" d="M20,213.45813640242497C220,213.45813640242497 220,27.20899617436196 420,27.20899617436196L420,38.5958525208387C220,38.5958525208387 220,224.84499274890172 20,224.84499274890172Z" style="stroke: rgb(68, 68, 68); stroke-opacity: 1; fill: rgb(0, 0, 0); fill-opacity: 0.2; stroke-width: 0; opacity: 1;"/><path class="sankey-link" d="M20,224.84499274890172C220,224.84499274890172 220,107.49652545291039 420,107.49652545291039L420,107.70513962826791C220,107.70513962826791 220,225.05360692425924 20,225.05360692425924Z" style="stroke: rgb(0, 0, 0); stroke-opacity: 0.2; fill: rgb(0, 0, 0); fill-opacity: 0.2; stroke-width: 1; opacity: 1;"/><path class="sankey-link" d="M20,225.0536069242592C220,225.0536069242592 220,133.43235008143128 420,133.43235008143128L420,133.4983175609518C220,133.4983175609518 220,225.11957440377972 20,225.11957440377972Z" style="stroke: rgb(0, 0, 0); stroke-opacity: 0.2; fill: rgb(0, 0, 0); fill-opacity: 0.2; stroke-width: 1; opacity: 1;"/><path class="sankey-link" d="M20,212.75888036049778C220,212.75888036049778 220,-1.3877787807814457e-14 420,-1.3877787807814457e-14L420,0.699256041927177C220,0.699256041927177 220,213.45813640242497 20,213.45813640242497Z" style="stroke: rgb(0, 0, 0); stroke-opacity: 0.2; fill: rgb(0, 0, 0); fill-opacity: 0.2; stroke-width: 1; opacity: 1;"/><path class="sankey-link" d="M20,230.9464756838247C80,230.9464756838247 80,555.4809636391731 140,555.4809636391731L140,555.671779463278C80,555.671779463278 80,231.13729150792972 20,231.13729150792972Z" style="stroke: rgb(0, 0, 0); stroke-opacity: 0.2; fill: rgb(0, 0, 0); fill-opacity: 0.2; stroke-width: 1; opacity: 1;"/><path class="sankey-link" d="M20,321.5934636270158C220,321.5934636270158 220,162.2241228155936 420,162.2241228155936L420,162.25933972731366C220,162.25933972731366 220,321.6286805387358 20,321.6286805387358Z" style="stroke: rgb(0, 0, 0); stroke-opacity: 0.2; fill: rgb(0, 0, 0); fill-opacity: 0.2; stroke-width: 1; opacity: 1;"/><path class="sankey-link" d="M20,322.6093996993655C220,322.6093996993655 220,442.2393310910802 420,442.2393310910802L420,442.8477416346474C220,442.8477416346474 220,323.21781024293267 20,323.21781024293267Z" style="stroke: rgb(0, 0, 0); stroke-opacity: 0.2; fill: rgb(0, 0, 0); fill-opacity: 0.2; stroke-width: 1; opacity: 1;"/><path class="sankey-link" d="M20,321.6286805387359C220,321.6286805387359 220,208.5913031470292 420,208.5913031470292L420,209.14787500718288C220,209.14787500718288 220,322.1852523988896 20,322.1852523988896Z" style="stroke: rgb(0, 0, 0); stroke-opacity: 0.2; fill: rgb(0, 0, 0); fill-opacity: 0.2; stroke-width: 1; opacity: 1;"/><path class="sankey-link" d="M20,323.21781024293267C220,323.21781024293267 220,469.0452334641572 420,469.0452334641572L420,469.0519690531035C220,469.0519690531035 220,323.22454583187897 20,323.22454583187897Z" style="stroke: rgb(0, 0, 0); stroke-opacity: 0.2; fill: rgb(0, 0, 0); fill-opacity: 0.2; stroke-width: 1; opacity: 1;"/><path class="sankey-link" d="M20,322.1852523988896C220,322.1852523988896 220,248.19920926120054 420,248.19920926120054L420,248.21956411401598C220,248.21956411401598 220,322.20560725170503 20,322.20560725170503Z" style="stroke: rgb(0, 0, 0); stroke-opacity: 0.2; fill: rgb(0, 0, 0); fill-opacity: 0.2; stroke-width: 1; opacity: 1;"/><path class="sankey-link" d="M20,322.20560725170503C220,322.20560725170503 220,279.9608744796866 420,279.9608744796866L420,280.3646669273471C220,280.3646669273471 220,322.60939969936555 20,322.60939969936555Z" style="stroke: rgb(0, 0, 0); stroke-opacity: 0.2; fill: rgb(0, 0, 0); fill-opacity: 0.2; stroke-width: 1; opacity: 1;"/><path class="sankey-link" d="M20,317.97010321945436C220,317.97010321945436 220,68.1810828732472 420,68.1810828732472L420,71.80444328080871C220,71.80444328080871 220,321.5934636270158 20,321.5934636270158Z" style="stroke: rgb(68, 68, 68); stroke-opacity: 1; fill: rgb(0, 0, 0); fill-opacity: 0.2; stroke-width: 0; opacity: 1;"/><path class="sankey-link" d="M20,317.5615935329644C220,317.5615935329644 220,1.0721923822592219 420,1.0721923822592219L420,1.480702068749142C220,1.480702068749142 220,317.9701032194543 20,317.9701032194543Z" style="stroke: rgb(0, 0, 0); stroke-opacity: 0.2; fill: rgb(0, 0, 0); fill-opacity: 0.2; stroke-width: 1; opacity: 1;"/><path class="sankey-link" d="M20,323.2245458318789C80,323.2245458318789 80,555.6842914514556 140,555.6842914514556L140,558.3118072016142C80,558.3118072016142 80,325.85206158203766 20,325.85206158203766Z" style="stroke: rgb(68, 68, 68); stroke-opacity: 1; fill: rgb(0, 0, 0); fill-opacity: 0.2; stroke-width: 0; opacity: 1;"/><path class="sankey-link" d="M20,494.74725120338957C220,494.74725120338957 220,418.37420196110946 420,418.37420196110946L420,418.45400821923107C220,418.45400821923107 220,494.8270574615112 20,494.8270574615112Z" style="stroke: rgb(0, 0, 0); stroke-opacity: 0.2; fill: rgb(0, 0, 0); fill-opacity: 0.2; stroke-width: 1; opacity: 1;"/><path class="sankey-link" d="M20,497.12141640401313C150,497.12141640401313 150,563.2007204660615 280,563.2007204660615L280,563.2593506434782C150,563.2593506434782 150,497.18004658142985 20,497.18004658142985Z" style="stroke: rgb(0, 0, 0); stroke-opacity: 0.2; fill: rgb(0, 0, 0); fill-opacity: 0.2; stroke-width: 1; opacity: 1;"/><path class="sankey-link" d="M20,490.88545018285004C220,490.88545018285004 220,181.32927695474424 420,181.32927695474424L420,181.53442491382762C220,181.53442491382762 220,491.09059814193347 20,491.09059814193347Z" style="stroke: rgb(0, 0, 0); stroke-opacity: 0.2; fill: rgb(0, 0, 0); fill-opacity: 0.2; stroke-width: 1; opacity: 1;"/><path class="sankey-link" d="M20,496.5747258796107C220,496.5747258796107 220,552.0980056315306 420,552.0980056315306L420,552.4550986783676C220,552.4550986783676 220,496.9318189264477 20,496.9318189264477Z" style="stroke: rgb(0, 0, 0); stroke-opacity: 0.2; fill: rgb(0, 0, 0); fill-opacity: 0.2; stroke-width: 1; opacity: 1;"/><path class="sankey-link" d="M20,494.8270574615114C220,494.8270574615114 220,444.0780986111567 420,444.0780986111567L420,445.0742138248251C220,445.0742138248251 220,495.8231726751798 20,495.8231726751798Z" style="stroke: rgb(0, 0, 0); stroke-opacity: 0.2; fill: rgb(0, 0, 0); fill-opacity: 0.2; stroke-width: 1; opacity: 1;"/><path class="sankey-link" d="M20,493.46375983796105C220,493.46375983796105 220,343.4370961870075 420,343.4370961870075L420,344.0528219270537C220,344.0528219270537 220,494.0794855780072 20,494.0794855780072Z" style="stroke: rgb(0, 0, 0); stroke-opacity: 0.2; fill: rgb(0, 0, 0); fill-opacity: 0.2; stroke-width: 1; opacity: 1;"/><path class="sankey-link" d="M20,496.2932951903528C220,496.2932951903528 220,521.6742593942345 420,521.6742593942345L420,521.9556900834923C220,521.9556900834923 220,496.57472587961064 20,496.57472587961064Z" style="stroke: rgb(0, 0, 0); stroke-opacity: 0.2; fill: rgb(0, 0, 0); fill-opacity: 0.2; stroke-width: 1; opacity: 1;"/><path class="sankey-link" d="M20,491.0905981419335C220,491.0905981419335 220,217.27621444884326 420,217.27621444884326L420,218.9613150295306C220,218.9613150295306 220,492.7756987226209 20,492.7756987226209Z" style="stroke: rgb(68, 68, 68); stroke-opacity: 1; fill: rgb(0, 0, 0); fill-opacity: 0.2; stroke-width: 0; opacity: 1;"/><path class="sankey-link" d="M20,495.82317267517976C220,495.82317267517976 220,471.3496986995713 420,471.3496986995713L420,471.70532049665604C220,471.70532049665604 220,496.1787944722645 20,496.1787944722645Z" style="stroke: rgb(0, 0, 0); stroke-opacity: 0.2; fill: rgb(0, 0, 0); fill-opacity: 0.2; stroke-width: 1; opacity: 1;"/><path class="sankey-link" d="M20,492.7756987226208C220,492.7756987226208 220,286.24006324711166 420,286.24006324711166L420,286.280279042474C220,286.280279042474 220,492.8159145179831 20,492.8159145179831Z" style="stroke: rgb(0, 0, 0); stroke-opacity: 0.2; fill: rgb(0, 0, 0); fill-opacity: 0.2; stroke-width: 1; opacity: 1;"/><path class="sankey-link" d="M20,492.81591451798334C220,492.81591451798334 220,315.33006873430355 420,315.33006873430355L420,315.97791405428137C220,315.97791405428137 220,493.46375983796116 20,493.46375983796116Z" style="stroke: rgb(0, 0, 0); stroke-opacity: 0.2; fill: rgb(0, 0, 0); fill-opacity: 0.2; stroke-width: 1; opacity: 1;"/><path class="sankey-link" d="M20,496.1787944722645C220,496.1787944722645 220,497.5664513678821 420,497.5664513678821L420,497.6809520859704C220,497.6809520859704 220,496.29329519035275 20,496.29329519035275Z" style="stroke: rgb(0, 0, 0); stroke-opacity: 0.2; fill: rgb(0, 0, 0); fill-opacity: 0.2; stroke-width: 1; opacity: 1;"/><path class="sankey-link" d="M20,489.3134661667855C220,489.3134661667855 220,80.07640134193849 420,80.07640134193849L420,81.52680951066338C220,81.52680951066338 220,490.7638743355103 20,490.7638743355103Z" style="stroke: rgb(68, 68, 68); stroke-opacity: 1; fill: rgb(0, 0, 0); fill-opacity: 0.2; stroke-width: 0; opacity: 1;"/><path class="sankey-link" d="M20,490.76387433551037C220,490.76387433551037 220,109.4268553782693 420,109.4268553782693L420,109.47229713842952C220,109.47229713842952 220,490.80931609567057 20,490.80931609567057Z" style="stroke: rgb(0, 0, 0); stroke-opacity: 0.2; fill: rgb(0, 0, 0); fill-opacity: 0.2; stroke-width: 1; opacity: 1;"/><path class="sankey-link" d="M20,496.93181892644765C220,496.93181892644765 220,577.1266967081995 420,577.1266967081995L420,577.316294185765C220,577.316294185765 220,497.121416404013 20,497.121416404013Z" style="stroke: rgb(0, 0, 0); stroke-opacity: 0.2; fill: rgb(0, 0, 0); fill-opacity: 0.2; stroke-width: 1; opacity: 1;"/><path class="sankey-link" d="M20,490.8093160956704C220,490.8093160956704 220,135.2160072927819 420,135.2160072927819L420,135.29214137996155C220,135.29214137996155 220,490.88545018285004 20,490.88545018285004Z" style="stroke: rgb(0, 0, 0); stroke-opacity: 0.2; fill: rgb(0, 0, 0); fill-opacity: 0.2; stroke-width: 1; opacity: 1;"/><path class="sankey-link" d="M20,497.18004658142996C80,497.18004658142996 80,562.1977859758255 140,562.1977859758255L140,562.9748311751397C80,562.9748311751397 80,497.9570917807442 20,497.9570917807442Z" style="stroke: rgb(0, 0, 0); stroke-opacity: 0.2; fill: rgb(0, 0, 0); fill-opacity: 0.2; stroke-width: 1; opacity: 1;"/><path class="sankey-link" d="M20,494.07948557800717C220,494.07948557800717 220,368.860200702769 420,368.860200702769L420,369.5279663281515C220,369.5279663281515 220,494.7472512033896 20,494.7472512033896Z" style="stroke: rgb(0, 0, 0); stroke-opacity: 0.2; fill: rgb(0, 0, 0); fill-opacity: 0.2; stroke-width: 1; opacity: 1;"/><path class="sankey-link" d="M20,527.3611191340601C150,527.3611191340601 150,563.2593506434783 280,563.2593506434783L280,563.2978914178244C150,563.2978914178244 150,527.3996599084062 20,527.3996599084062Z" style="stroke: rgb(0, 0, 0); stroke-opacity: 0.2; fill: rgb(0, 0, 0); fill-opacity: 0.2; stroke-width: 1; opacity: 1;"/><path class="sankey-link" d="M20,521.9837133627558C220,521.9837133627558 220,181.53442491382762 420,181.53442491382762L420,181.724877999854C220,181.724877999854 220,522.1741664487821 20,522.1741664487821Z" style="stroke: rgb(0, 0, 0); stroke-opacity: 0.2; fill: rgb(0, 0, 0); fill-opacity: 0.2; stroke-width: 1; opacity: 1;"/><path class="sankey-link" d="M20,526.2292224111206C220,526.2292224111206 220,552.4550986783673 420,552.4550986783673L420,552.9566168553575C220,552.9566168553575 220,526.7307405881108 20,526.7307405881108Z" style="stroke: rgb(0, 0, 0); stroke-opacity: 0.2; fill: rgb(0, 0, 0); fill-opacity: 0.2; stroke-width: 1; opacity: 1;"/><path class="sankey-link" d="M20,523.5076818727626C220,523.5076818727626 220,445.07421382482516 420,445.07421382482516L420,445.22520604794533C220,445.22520604794533 220,523.6586740958829 20,523.6586740958829Z" style="stroke: rgb(0, 0, 0); stroke-opacity: 0.2; fill: rgb(0, 0, 0); fill-opacity: 0.2; stroke-width: 1; opacity: 1;"/><path class="sankey-link" d="M20,523.2988169043398C220,523.2988169043398 220,344.0528219270536 420,344.0528219270536L420,344.2424850568236C220,344.2424850568236 220,523.4884800341098 20,523.4884800341098Z" style="stroke: rgb(0, 0, 0); stroke-opacity: 0.2; fill: rgb(0, 0, 0); fill-opacity: 0.2; stroke-width: 1; opacity: 1;"/><path class="sankey-link" d="M20,523.7580440427231C220,523.7580440427231 220,521.9556900834922 420,521.9556900834922L420,524.4268684518898C220,524.4268684518898 220,526.2292224111208 20,526.2292224111208Z" style="stroke: rgb(68, 68, 68); stroke-opacity: 1; fill: rgb(0, 0, 0); fill-opacity: 0.2; stroke-width: 0; opacity: 1;"/><path class="sankey-link" d="M20,522.1741664487821C220,522.1741664487821 220,218.9613150295306 420,218.9613150295306L420,218.9781480321536C220,218.9781480321536 220,522.1909994514052 20,522.1909994514052Z" style="stroke: rgb(0, 0, 0); stroke-opacity: 0.2; fill: rgb(0, 0, 0); fill-opacity: 0.2; stroke-width: 1; opacity: 1;"/><path class="sankey-link" d="M20,523.6586740958829C220,523.6586740958829 220,471.7053204966561 420,471.7053204966561L420,471.7591126369024C220,471.7591126369024 220,523.7124662361292 20,523.7124662361292Z" style="stroke: rgb(0, 0, 0); stroke-opacity: 0.2; fill: rgb(0, 0, 0); fill-opacity: 0.2; stroke-width: 1; opacity: 1;"/><path class="sankey-link" d="M20,522.1909994514052C220,522.1909994514052 220,286.2802790424739 420,286.2802790424739L420,286.2977841332761C220,286.2977841332761 220,522.2085045422074 20,522.2085045422074Z" style="stroke: rgb(0, 0, 0); stroke-opacity: 0.2; fill: rgb(0, 0, 0); fill-opacity: 0.2; stroke-width: 1; opacity: 1;"/><path class="sankey-link" d="M20,522.2085045422074C220,522.2085045422074 220,315.9779140542814 420,315.9779140542814L420,317.06822641641384C220,317.06822641641384 220,523.2988169043398 20,523.2988169043398Z" style="stroke: rgb(68, 68, 68); stroke-opacity: 1; fill: rgb(0, 0, 0); fill-opacity: 0.2; stroke-width: 0; opacity: 1;"/><path class="sankey-link" d="M20,523.7124662361293C220,523.7124662361293 220,497.6809520859705 420,497.6809520859705L420,497.7265298925645C220,497.7265298925645 220,523.7580440427232 20,523.7580440427232Z" style="stroke: rgb(0, 0, 0); stroke-opacity: 0.2; fill: rgb(0, 0, 0); fill-opacity: 0.2; stroke-width: 1; opacity: 1;"/><path class="sankey-link" d="M20,521.5232119330208C220,521.5232119330208 220,81.52680951066344 420,81.52680951066344L420,81.9836047335036C220,81.9836047335036 220,521.9800071558609 20,521.9800071558609Z" style="stroke: rgb(0, 0, 0); stroke-opacity: 0.2; fill: rgb(0, 0, 0); fill-opacity: 0.2; stroke-width: 1; opacity: 1;"/><path class="sankey-link" d="M20,521.9800071558609C220,521.9800071558609 220,109.47229713842958 420,109.47229713842958L420,109.47600334532444C220,109.47600334532444 220,521.9837133627557 20,521.9837133627557Z" style="stroke: rgb(0, 0, 0); stroke-opacity: 0.2; fill: rgb(0, 0, 0); fill-opacity: 0.2; stroke-width: 1; opacity: 1;"/><path class="sankey-link" d="M20,526.7307405881108C220,526.7307405881108 220,577.316294185765 420,577.316294185765L420,577.9466727317142C220,577.9466727317142 220,527.3611191340601 20,527.3611191340601Z" style="stroke: rgb(0, 0, 0); stroke-opacity: 0.2; fill: rgb(0, 0, 0); fill-opacity: 0.2; stroke-width: 1; opacity: 1;"/><path class="sankey-link" d="M20,527.3996599084061C80,527.3996599084061 80,562.9748311751397 140,562.9748311751397L140,563.1981503722731C80,563.1981503722731 80,527.6229791055395 20,527.6229791055395Z" style="stroke: rgb(0, 0, 0); stroke-opacity: 0.2; fill: rgb(0, 0, 0); fill-opacity: 0.2; stroke-width: 1; opacity: 1;"/><path class="sankey-link" d="M20,523.4884800341098C220,523.4884800341098 220,369.5279663281515 420,369.5279663281515L420,369.54716816680434C220,369.54716816680434 220,523.5076818727626 20,523.5076818727626Z" style="stroke: rgb(0, 0, 0); stroke-opacity: 0.2; fill: rgb(0, 0, 0); fill-opacity: 0.2; stroke-width: 1; opacity: 1;"/><path class="sankey-link" d="M20,459.35182930221225C220,459.35182930221225 220,418.35107762657685 420,418.35107762657685L420,418.3742019611094C220,418.3742019611094 220,459.3749536367448 20,459.3749536367448Z" style="stroke: rgb(0, 0, 0); stroke-opacity: 0.2; fill: rgb(0, 0, 0); fill-opacity: 0.2; stroke-width: 1; opacity: 1;"/><path class="sankey-link" d="M20,465.06524505944554C150,465.06524505944554 150,563.1259281610002 280,563.1259281610002L280,563.2007204660616C150,563.2007204660616 150,465.1400373645069 20,465.1400373645069Z" style="stroke: rgb(0, 0, 0); stroke-opacity: 0.2; fill: rgb(0, 0, 0); fill-opacity: 0.2; stroke-width: 1; opacity: 1;"/><path class="sankey-link" d="M20,446.06572482430545C220,446.06572482430545 220,173.4219908443742 420,173.4219908443742L420,181.32927695474416C220,181.32927695474416 220,453.9730109346755 20,453.9730109346755Z" style="stroke: rgb(68, 68, 68); stroke-opacity: 1; fill: rgb(0, 0, 0); fill-opacity: 0.2; stroke-width: 0; opacity: 1;"/><path class="sankey-link" d="M20,462.1158863075925C220,462.1158863075925 220,549.5410490343417 420,549.5410490343417L420,552.0980056315306C220,552.0980056315306 220,464.67284290478153 20,464.67284290478153Z" style="stroke: rgb(68, 68, 68); stroke-opacity: 1; fill: rgb(0, 0, 0); fill-opacity: 0.2; stroke-width: 0; opacity: 1;"/><path class="sankey-link" d="M20,459.3749536367448C220,459.3749536367448 220,443.90546728990586 420,443.90546728990586L420,444.0780986111567C220,444.0780986111567 220,459.54758495799564 20,459.54758495799564Z" style="stroke: rgb(0, 0, 0); stroke-opacity: 0.2; fill: rgb(0, 0, 0); fill-opacity: 0.2; stroke-width: 1; opacity: 1;"/><path class="sankey-link" d="M20,458.660414989446C220,458.660414989446 220,342.94280744267604 420,342.94280744267604L420,343.4370961870076C220,343.4370961870076 220,459.1547037337776 20,459.1547037337776Z" style="stroke: rgb(0, 0, 0); stroke-opacity: 0.2; fill: rgb(0, 0, 0); fill-opacity: 0.2; stroke-width: 1; opacity: 1;"/><path class="sankey-link" d="M20,461.85091340960344C220,461.85091340960344 220,521.4092864962452 420,521.4092864962452L420,521.6742593942342C220,521.6742593942342 220,462.11588630759263 20,462.11588630759263Z" style="stroke: rgb(0, 0, 0); stroke-opacity: 0.2; fill: rgb(0, 0, 0); fill-opacity: 0.2; stroke-width: 1; opacity: 1;"/><path class="sankey-link" d="M20,459.15470373377747C220,459.15470373377747 220,394.3265924070391 420,394.3265924070391L420,394.52371797547386C220,394.52371797547386 220,459.35182930221225 20,459.35182930221225Z" style="stroke: rgb(0, 0, 0); stroke-opacity: 0.2; fill: rgb(0, 0, 0); fill-opacity: 0.2; stroke-width: 1; opacity: 1;"/><path class="sankey-link" d="M20,453.9730109346755C220,453.9730109346755 220,217.00657877205077 420,217.00657877205077L420,217.2762144488433C220,217.2762144488433 220,454.242646611468 20,454.242646611468Z" style="stroke: rgb(0, 0, 0); stroke-opacity: 0.2; fill: rgb(0, 0, 0); fill-opacity: 0.2; stroke-width: 1; opacity: 1;"/><path class="sankey-link" d="M20,459.54758495799564C220,459.54758495799564 220,470.5143534277853 420,470.5143534277853L420,471.34969869957126C220,471.34969869957126 220,460.3829302297816 20,460.3829302297816Z" style="stroke: rgb(0, 0, 0); stroke-opacity: 0.2; fill: rgb(0, 0, 0); fill-opacity: 0.2; stroke-width: 1; opacity: 1;"/><path class="sankey-link" d="M20,454.242646611468C220,454.242646611468 220,252.7825295680013 420,252.7825295680013L420,253.48919017230847C220,253.48919017230847 220,454.9493072157751 20,454.9493072157751Z" style="stroke: rgb(0, 0, 0); stroke-opacity: 0.2; fill: rgb(0, 0, 0); fill-opacity: 0.2; stroke-width: 1; opacity: 1;"/><path class="sankey-link" d="M20,454.94930721577515C220,454.94930721577515 220,285.0191992534805 420,285.0191992534805L420,286.24006324711166C220,286.24006324711166 220,456.1701712094063 20,456.1701712094063Z" style="stroke: rgb(68, 68, 68); stroke-opacity: 1; fill: rgb(0, 0, 0); fill-opacity: 0.2; stroke-width: 0; opacity: 1;"/><path class="sankey-link" d="M20,456.1701712094063C220,456.1701712094063 220,312.8398249542639 420,312.8398249542639L420,315.3300687343036C220,315.3300687343036 220,458.660414989446 20,458.660414989446Z" style="stroke: rgb(68, 68, 68); stroke-opacity: 1; fill: rgb(0, 0, 0); fill-opacity: 0.2; stroke-width: 0; opacity: 1;"/><path class="sankey-link" d="M20,460.3829302297816C220,460.3829302297816 220,496.09846818806045 420,496.09846818806045L420,497.5664513678822C220,497.5664513678822 220,461.8509134096034 20,461.8509134096034Z" style="stroke: rgb(68, 68, 68); stroke-opacity: 1; fill: rgb(0, 0, 0); fill-opacity: 0.2; stroke-width: 0; opacity: 1;"/><path class="sankey-link" d="M20,440.09393208628734C220,440.09393208628734 220,74.3090131836489 420,74.3090131836489L420,80.07640134193848C220,80.07640134193848 220,445.8613202445769 20,445.8613202445769Z" style="stroke: rgb(68, 68, 68); stroke-opacity: 1; fill: rgb(0, 0, 0); fill-opacity: 0.2; stroke-width: 0; opacity: 1;"/><path class="sankey-link" d="M20,445.861320244577C220,445.861320244577 220,109.3457419937599 420,109.3457419937599L420,109.42685537826932C220,109.42685537826932 220,445.9424336290864 20,445.9424336290864Z" style="stroke: rgb(0, 0, 0); stroke-opacity: 0.2; fill: rgb(0, 0, 0); fill-opacity: 0.2; stroke-width: 1; opacity: 1;"/><path class="sankey-link" d="M20,464.6728429047816C220,464.6728429047816 220,576.7342945535355 420,576.7342945535355L420,577.1266967081996C220,577.1266967081996 220,465.06524505944554 20,465.06524505944554Z" style="stroke: rgb(0, 0, 0); stroke-opacity: 0.2; fill: rgb(0, 0, 0); fill-opacity: 0.2; stroke-width: 1; opacity: 1;"/><path class="sankey-link" d="M20,445.94243362908645C220,445.94243362908645 220,135.0927160975628 420,135.0927160975628L420,135.2160072927819C220,135.2160072927819 220,446.0657248243055 20,446.0657248243055Z" style="stroke: rgb(0, 0, 0); stroke-opacity: 0.2; fill: rgb(0, 0, 0); fill-opacity: 0.2; stroke-width: 1; opacity: 1;"/><path class="sankey-link" d="M20,465.1400373645069C80,465.1400373645069 80,561.5904773258239 140,561.5904773258239L140,562.1977859758256C80,562.1977859758256 80,465.74734601450865 20,465.74734601450865Z" style="stroke: rgb(0, 0, 0); stroke-opacity: 0.2; fill: rgb(0, 0, 0); fill-opacity: 0.2; stroke-width: 1; opacity: 1;"/><path class="sankey-link" d="M20,414.12389913058513C150,414.12389913058513 150,562.7453112703139 280,562.7453112703139L280,563.1259281610002C150,563.1259281610002 150,414.5045160212714 20,414.5045160212714Z" style="stroke: rgb(0, 0, 0); stroke-opacity: 0.2; fill: rgb(0, 0, 0); fill-opacity: 0.2; stroke-width: 1; opacity: 1;"/><path class="sankey-link" d="M20,392.69807279399873C220,392.69807279399873 220,166.49910232276136 420,166.49910232276136L420,173.42199084437425C220,173.42199084437425 220,399.6209613156116 20,399.6209613156116Z" style="stroke: rgb(68, 68, 68); stroke-opacity: 1; fill: rgb(0, 0, 0); fill-opacity: 0.2; stroke-width: 0; opacity: 1;"/><path class="sankey-link" d="M20,414.00382953893023C220,414.00382953893023 220,549.4209794426866 420,549.4209794426866L420,549.5410490343417C220,549.5410490343417 220,414.12389913058513 20,414.12389913058513Z" style="stroke: rgb(0, 0, 0); stroke-opacity: 0.2; fill: rgb(0, 0, 0); fill-opacity: 0.2; stroke-width: 1; opacity: 1;"/><path class="sankey-link" d="M20,412.55630576159456C220,412.55630576159456 220,443.24349438166143 420,443.24349438166143L420,443.9054672899058C220,443.9054672899058 220,413.2182786698389 20,413.2182786698389Z" style="stroke: rgb(0, 0, 0); stroke-opacity: 0.2; fill: rgb(0, 0, 0); fill-opacity: 0.2; stroke-width: 1; opacity: 1;"/><path class="sankey-link" d="M20,411.2036756492969C220,411.2036756492969 220,342.232422515877 420,342.232422515877L420,342.9428074426759C220,342.9428074426759 220,411.91406057609584 20,411.91406057609584Z" style="stroke: rgb(0, 0, 0); stroke-opacity: 0.2; fill: rgb(0, 0, 0); fill-opacity: 0.2; stroke-width: 1; opacity: 1;"/><path class="sankey-link" d="M20,413.94575429631374C220,413.94575429631374 220,521.3512112536289 420,521.3512112536289L420,521.4092864962454C220,521.4092864962454 220,414.0038295389301 20,414.0038295389301Z" style="stroke: rgb(0, 0, 0); stroke-opacity: 0.2; fill: rgb(0, 0, 0); fill-opacity: 0.2; stroke-width: 1; opacity: 1;"/><path class="sankey-link" d="M20,412.40331544157294C220,412.40331544157294 220,394.1736020870175 420,394.1736020870175L420,394.3265924070391C220,394.3265924070391 220,412.5563057615945 20,412.5563057615945Z" style="stroke: rgb(0, 0, 0); stroke-opacity: 0.2; fill: rgb(0, 0, 0); fill-opacity: 0.2; stroke-width: 1; opacity: 1;"/><path class="sankey-link" d="M20,399.62096131561157C220,399.62096131561157 220,213.29823419432358 420,213.29823419432358L420,217.00657877205072C220,217.00657877205072 220,403.32930589333876 20,403.32930589333876Z" style="stroke: rgb(68, 68, 68); stroke-opacity: 1; fill: rgb(0, 0, 0); fill-opacity: 0.2; stroke-width: 0; opacity: 1;"/><path class="sankey-link" d="M20,413.218278669839C220,413.218278669839 220,470.087484508951 420,470.087484508951L420,470.5143534277853C220,470.5143534277853 220,413.6451475886733 20,413.6451475886733Z" style="stroke: rgb(0, 0, 0); stroke-opacity: 0.2; fill: rgb(0, 0, 0); fill-opacity: 0.2; stroke-width: 1; opacity: 1;"/><path class="sankey-link" d="M20,403.3293058933388C220,403.3293058933388 220,248.39100068807187 420,248.39100068807187L420,252.7825295680014C220,252.7825295680014 220,407.72083477326834 20,407.72083477326834Z" style="stroke: rgb(68, 68, 68); stroke-opacity: 1; fill: rgb(0, 0, 0); fill-opacity: 0.2; stroke-width: 0; opacity: 1;"/><path class="sankey-link" d="M20,407.7208347732682C220,407.7208347732682 220,281.71101128059684 420,281.71101128059684L420,285.01919925348045C220,285.01919925348045 220,411.02902274615184 20,411.02902274615184Z" style="stroke: rgb(68, 68, 68); stroke-opacity: 1; fill: rgb(0, 0, 0); fill-opacity: 0.2; stroke-width: 0; opacity: 1;"/><path class="sankey-link" d="M20,411.02902274615184C220,411.02902274615184 220,312.6651720511188 420,312.6651720511188L420,312.8398249542639C220,312.8398249542639 220,411.20367564929694 20,411.20367564929694Z" style="stroke: rgb(0, 0, 0); stroke-opacity: 0.2; fill: rgb(0, 0, 0); fill-opacity: 0.2; stroke-width: 1; opacity: 1;"/><path class="sankey-link" d="M20,413.64514758867335C220,413.64514758867335 220,495.7978614804198 420,495.7978614804198L420,496.0984681880602C220,496.0984681880602 220,413.9457542963138 20,413.9457542963138Z" style="stroke: rgb(0, 0, 0); stroke-opacity: 0.2; fill: rgb(0, 0, 0); fill-opacity: 0.2; stroke-width: 1; opacity: 1;"/><path class="sankey-link" d="M20,389.54875844295987C220,389.54875844295987 220,72.33063813400923 420,72.33063813400923L420,74.30901318364889C220,74.30901318364889 220,391.52713349259955 20,391.52713349259955Z" style="stroke: rgb(68, 68, 68); stroke-opacity: 1; fill: rgb(0, 0, 0); fill-opacity: 0.2; stroke-width: 0; opacity: 1;"/><path class="sankey-link" d="M20,391.52713349259966C220,391.52713349259966 220,108.87374804055439 420,108.87374804055439L420,109.34574199375994C220,109.34574199375994 220,391.99912744580524 20,391.99912744580524Z" style="stroke: rgb(0, 0, 0); stroke-opacity: 0.2; fill: rgb(0, 0, 0); fill-opacity: 0.2; stroke-width: 1; opacity: 1;"/><path class="sankey-link" d="M20,391.9991274458052C220,391.9991274458052 220,134.39377074936928 420,134.39377074936928L420,135.09271609756283C220,135.09271609756283 220,392.69807279399873 20,392.69807279399873Z" style="stroke: rgb(0, 0, 0); stroke-opacity: 0.2; fill: rgb(0, 0, 0); fill-opacity: 0.2; stroke-width: 1; opacity: 1;"/><path class="sankey-link" d="M20,388.4240670244576C220,388.4240670244576 220,1.7516840659953565 420,1.7516840659953565L420,2.876375484497723C220,2.876375484497723 220,389.54875844296 20,389.54875844296Z" style="stroke: rgb(68, 68, 68); stroke-opacity: 1; fill: rgb(0, 0, 0); fill-opacity: 0.2; stroke-width: 0; opacity: 1;"/><path class="sankey-link" d="M20,414.50451602127134C80,414.50451602127134 80,559.5671814130848 140,559.5671814130848L140,561.5904773258238C80,561.5904773258238 80,416.5278119340105 20,416.5278119340105Z" style="stroke: rgb(68, 68, 68); stroke-opacity: 1; fill: rgb(0, 0, 0); fill-opacity: 0.2; stroke-width: 0; opacity: 1;"/><path class="sankey-link" d="M20,411.9140605760959C220,411.9140605760959 220,368.37094583729197 420,368.37094583729197L420,368.860200702769C220,368.860200702769 220,412.40331544157294 20,412.40331544157294Z" style="stroke: rgb(0, 0, 0); stroke-opacity: 0.2; fill: rgb(0, 0, 0); fill-opacity: 0.2; stroke-width: 1; opacity: 1;"/></g><g class="sankey-node-set" style="cursor: move;"><g class="sankey-node" transform="translate(0.000,254.703)" style="opacity: 1;"><rect class="node-rect" width="20" height="39.292061720481115" style="stroke-width: 0.5; stroke: rgb(0, 0, 0); stroke-opacity: 1; fill: rgb(0, 0, 255); fill-opacity: 1;"/><text class="node-label" data-notex="1" x="0" y="0" text-anchor="start" transform="translate(23.25,23.146030860240558)" style="cursor: default; font-family: 'Open Sans', verdana, arial, sans-serif; font-size: 10px; fill: rgb(42, 63, 95); fill-opacity: 1; white-space: pre; text-shadow: white 1px 1px 1px, white -1px -1px 1px, white 1px -1px 1px, white -1px 1px 1px;">United Arab Emirates</text></g><g class="sankey-node" transform="translate(420.000,418.150)" style="opacity: 1;"><rect class="node-rect" width="20" height="0.5229761419319061" style="stroke-width: 0.5; stroke: rgb(0, 0, 0); stroke-opacity: 1; fill: rgb(0, 0, 255); fill-opacity: 1;"/><text class="node-label" data-notex="1" x="0" y="0" text-anchor="end" transform="translate(-3.25,3.761488070965953)" style="cursor: default; font-family: 'Open Sans', verdana, arial, sans-serif; font-size: 10px; fill: rgb(42, 63, 95); fill-opacity: 1; white-space: pre; text-shadow: white 1px 1px 1px, white -1px -1px 1px, white 1px -1px 1px, white -1px 1px 1px;">Australia</text></g><g class="sankey-node" transform="translate(420.000,159.364)" style="opacity: 1;"><rect class="node-rect" width="20" height="23.029142312943776" style="stroke-width: 0.5; stroke: rgb(0, 0, 0); stroke-opacity: 1; fill: rgb(0, 0, 255); fill-opacity: 1;"/><text class="node-label" data-notex="1" x="0" y="0" text-anchor="end" transform="translate(-3.25,15.014571156471888)" style="cursor: default; font-family: 'Open Sans', verdana, arial, sans-serif; font-size: 10px; fill: rgb(42, 63, 95); fill-opacity: 1; white-space: pre; text-shadow: white 1px 1px 1px, white -1px -1px 1px, white 1px -1px 1px, white -1px 1px 1px;">China</text></g><g class="sankey-node" transform="translate(420.000,549.279)" style="opacity: 1;"><rect class="node-rect" width="20" height="3.8889334941671905" style="stroke-width: 0.5; stroke: rgb(0, 0, 0); stroke-opacity: 1; fill: rgb(0, 0, 255); fill-opacity: 1;"/><text class="node-label" data-notex="1" x="0" y="0" text-anchor="end" transform="translate(-3.25,5.444466747083595)" style="cursor: default; font-family: 'Open Sans', verdana, arial, sans-serif; font-size: 10px; fill: rgb(42, 63, 95); fill-opacity: 1; white-space: pre; text-shadow: white 1px 1px 1px, white -1px -1px 1px, white 1px -1px 1px, white -1px 1px 1px;">Germany</text></g><g class="sankey-node" transform="translate(420.000,342.030)" style="opacity: 1;"><rect class="node-rect" width="20" height="2.6104130949169644" style="stroke-width: 0.5; stroke: rgb(0, 0, 0); stroke-opacity: 1; fill: rgb(0, 0, 255); fill-opacity: 1;"/><text class="node-label" data-notex="1" x="0" y="0" text-anchor="end" transform="translate(-3.25,4.805206547458482)" style="cursor: default; font-family: 'Open Sans', verdana, arial, sans-serif; font-size: 10px; fill: rgb(42, 63, 95); fill-opacity: 1; white-space: pre; text-shadow: white 1px 1px 1px, white -1px -1px 1px, white 1px -1px 1px, white -1px 1px 1px;">France</text></g><g class="sankey-node" transform="translate(420.000,521.351)" style="opacity: 1;"><rect class="node-rect" width="20" height="4.361910154911698" style="stroke-width: 0.5; stroke: rgb(0, 0, 0); stroke-opacity: 1; fill: rgb(0, 0, 255); fill-opacity: 1;"/><text class="node-label" data-notex="1" x="0" y="0" text-anchor="end" transform="translate(-3.25,5.680955077455849)" style="cursor: default; font-family: 'Open Sans', verdana, arial, sans-serif; font-size: 10px; fill: rgb(42, 63, 95); fill-opacity: 1; white-space: pre; text-shadow: white 1px 1px 1px, white -1px -1px 1px, white 1px -1px 1px, white -1px 1px 1px;">United Kingdom</text></g><g class="sankey-node" transform="translate(420.000,205.959)" style="opacity: 1;"><rect class="node-rect" width="20" height="14.23072600206342" style="stroke-width: 0.5; stroke: rgb(0, 0, 0); stroke-opacity: 1; fill: rgb(0, 0, 255); fill-opacity: 1;"/><text class="node-label" data-notex="1" x="0" y="0" text-anchor="end" transform="translate(-3.25,10.61536300103171)" style="cursor: default; font-family: 'Open Sans', verdana, arial, sans-serif; font-size: 10px; fill: rgb(42, 63, 95); fill-opacity: 1; white-space: pre; text-shadow: white 1px 1px 1px, white -1px -1px 1px, white 1px -1px 1px, white -1px 1px 1px;">India</text></g><g class="sankey-node" transform="translate(420.000,243.756)" style="opacity: 1;"><rect class="node-rect" width="20" height="9.99070144057967" style="stroke-width: 0.5; stroke: rgb(0, 0, 0); stroke-opacity: 1; fill: rgb(0, 0, 255); fill-opacity: 1;"/><text class="node-label" data-notex="1" x="0" y="0" text-anchor="end" transform="translate(-3.25,8.495350720289835)" style="cursor: default; font-family: 'Open Sans', verdana, arial, sans-serif; font-size: 10px; fill: rgb(42, 63, 95); fill-opacity: 1; white-space: pre; text-shadow: white 1px 1px 1px, white -1px -1px 1px, white 1px -1px 1px, white -1px 1px 1px;">Japan</text></g><g class="sankey-node" transform="translate(420.000,277.313)" style="opacity: 1;"><rect class="node-rect" width="20" height="10.992722535407097" style="stroke-width: 0.5; stroke: rgb(0, 0, 0); stroke-opacity: 1; fill: rgb(0, 0, 255); fill-opacity: 1;"/><text class="node-label" data-notex="1" x="0" y="0" text-anchor="end" transform="translate(-3.25,8.996361267703548)" style="cursor: default; font-family: 'Open Sans', verdana, arial, sans-serif; font-size: 10px; fill: rgb(42, 63, 95); fill-opacity: 1; white-space: pre; text-shadow: white 1px 1px 1px, white -1px -1px 1px, white 1px -1px 1px, white -1px 1px 1px;">Korea, Republic of</text></g><g class="sankey-node" transform="translate(420.000,311.871)" style="opacity: 1;"><rect class="node-rect" width="20" height="6.592782935630225" style="stroke-width: 0.5; stroke: rgb(0, 0, 0); stroke-opacity: 1; fill: rgb(0, 0, 255); fill-opacity: 1;"/><text class="node-label" data-notex="1" x="0" y="0" text-anchor="end" transform="translate(-3.25,6.796391467815113)" style="cursor: default; font-family: 'Open Sans', verdana, arial, sans-serif; font-size: 10px; fill: rgb(42, 63, 95); fill-opacity: 1; white-space: pre; text-shadow: white 1px 1px 1px, white -1px -1px 1px, white 1px -1px 1px, white -1px 1px 1px;">Netherlands</text></g><g class="sankey-node" transform="translate(420.000,27.209)" style="opacity: 1;"><rect class="node-rect" width="20" height="56.72140912627168" style="stroke-width: 0.5; stroke: rgb(0, 0, 0); stroke-opacity: 1; fill: rgb(0, 0, 255); fill-opacity: 1;"/><text class="node-label" data-notex="1" x="0" y="0" text-anchor="end" transform="translate(-3.25,31.86070456313584)" style="cursor: default; font-family: 'Open Sans', verdana, arial, sans-serif; font-size: 10px; fill: rgb(42, 63, 95); fill-opacity: 1; white-space: pre; text-shadow: white 1px 1px 1px, white -1px -1px 1px, white 1px -1px 1px, white -1px 1px 1px;">Rest of World</text></g><g class="sankey-node" transform="translate(420.000,107.497)" style="opacity: 1;"><rect class="node-rect" width="20" height="2.369704476244152" style="stroke-width: 0.5; stroke: rgb(0, 0, 0); stroke-opacity: 1; fill: rgb(0, 0, 255); fill-opacity: 1;"/><text class="node-label" data-notex="1" x="0" y="0" text-anchor="end" transform="translate(-3.25,4.684852238122076)" style="cursor: default; font-family: 'Open Sans', verdana, arial, sans-serif; font-size: 10px; fill: rgb(42, 63, 95); fill-opacity: 1; white-space: pre; text-shadow: white 1px 1px 1px, white -1px -1px 1px, white 1px -1px 1px, white -1px 1px 1px;">Singapore</text></g><g class="sankey-node" transform="translate(420.000,133.432)" style="opacity: 1;"><rect class="node-rect" width="20" height="2.365184570808509" style="stroke-width: 0.5; stroke: rgb(0, 0, 0); stroke-opacity: 1; fill: rgb(0, 0, 255); fill-opacity: 1;"/><text class="node-label" data-notex="1" x="0" y="0" text-anchor="end" transform="translate(-3.25,4.6825922854042545)" style="cursor: default; font-family: 'Open Sans', verdana, arial, sans-serif; font-size: 10px; fill: rgb(42, 63, 95); fill-opacity: 1; white-space: pre; text-shadow: white 1px 1px 1px, white -1px -1px 1px, white 1px -1px 1px, white -1px 1px 1px;">Thailand</text></g><g class="sankey-node" transform="translate(420.000,0.000)" style="opacity: 1;"><rect class="node-rect" width="20" height="3.6428760220851757" style="stroke-width: 0.5; stroke: rgb(0, 0, 0); stroke-opacity: 1; fill: rgb(0, 0, 255); fill-opacity: 1;"/><text class="node-label" data-notex="1" x="0" y="0" text-anchor="end" transform="translate(-3.25,5.321438011042588)" style="cursor: default; font-family: 'Open Sans', verdana, arial, sans-serif; font-size: 10px; fill: rgb(42, 63, 95); fill-opacity: 1; white-space: pre; text-shadow: white 1px 1px 1px, white -1px -1px 1px, white 1px -1px 1px, white -1px 1px 1px;">Taiwan</text></g><g class="sankey-node" transform="translate(140.000,555.481)" style="opacity: 1;"><rect class="node-rect" width="20" height="22.489199315186283" style="stroke-width: 0.5; stroke: rgb(0, 0, 0); stroke-opacity: 1; fill: rgb(0, 0, 255); fill-opacity: 1;"/><text class="node-label" data-notex="1" x="0" y="0" text-anchor="start" transform="translate(23.25,14.744599657593142)" style="cursor: default; font-family: 'Open Sans', verdana, arial, sans-serif; font-size: 10px; fill: rgb(42, 63, 95); fill-opacity: 1; white-space: pre; text-shadow: white 1px 1px 1px, white -1px -1px 1px, white 1px -1px 1px, white -1px 1px 1px;">United States of America</text></g><g class="sankey-node" transform="translate(420.000,368.207)" style="opacity: 1;"><rect class="node-rect" width="20" height="1.3554410876232055" style="stroke-width: 0.5; stroke: rgb(0, 0, 0); stroke-opacity: 1; fill: rgb(0, 0, 255); fill-opacity: 1;"/><text class="node-label" data-notex="1" x="0" y="0" text-anchor="end" transform="translate(-3.25,4.177720543811603)" style="cursor: default; font-family: 'Open Sans', verdana, arial, sans-serif; font-size: 10px; fill: rgb(42, 63, 95); fill-opacity: 1; white-space: pre; text-shadow: white 1px 1px 1px, white -1px -1px 1px, white 1px -1px 1px, white -1px 1px 1px;">South Africa</text></g><g class="sankey-node" transform="translate(280.000,562.745)" style="opacity: 1;"><rect class="node-rect" width="20" height="15.224851684045348" style="stroke-width: 0.5; stroke: rgb(0, 0, 0); stroke-opacity: 1; fill: rgb(0, 0, 255); fill-opacity: 1;"/><text class="node-label" data-notex="1" x="0" y="0" text-anchor="start" transform="translate(23.25,11.112425842022674)" style="cursor: default; font-family: 'Open Sans', verdana, arial, sans-serif; font-size: 10px; fill: rgb(42, 63, 95); fill-opacity: 1; white-space: pre; text-shadow: white 1px 1px 1px, white -1px -1px 1px, white 1px -1px 1px, white -1px 1px 1px;">Canada</text></g><g class="sankey-node" transform="translate(420.000,442.239)" style="opacity: 1;"><rect class="node-rect" width="20" height="3.2397822208002367" style="stroke-width: 0.5; stroke: rgb(0, 0, 0); stroke-opacity: 1; fill: rgb(0, 0, 255); fill-opacity: 1;"/><text class="node-label" data-notex="1" x="0" y="0" text-anchor="end" transform="translate(-3.25,5.119891110400118)" style="cursor: default; font-family: 'Open Sans', verdana, arial, sans-serif; font-size: 10px; fill: rgb(42, 63, 95); fill-opacity: 1; white-space: pre; text-shadow: white 1px 1px 1px, white -1px -1px 1px, white 1px -1px 1px, white -1px 1px 1px;">Spain</text></g><g class="sankey-node" transform="translate(420.000,469.045)" style="opacity: 1;"><rect class="node-rect" width="20" height="3.1865078639858666" style="stroke-width: 0.5; stroke: rgb(0, 0, 0); stroke-opacity: 1; fill: rgb(0, 0, 255); fill-opacity: 1;"/><text class="node-label" data-notex="1" x="0" y="0" text-anchor="end" transform="translate(-3.25,5.093253931992933)" style="cursor: default; font-family: 'Open Sans', verdana, arial, sans-serif; font-size: 10px; fill: rgb(42, 63, 95); fill-opacity: 1; white-space: pre; text-shadow: white 1px 1px 1px, white -1px -1px 1px, white 1px -1px 1px, white -1px 1px 1px;">Italy</text></g><g class="sankey-node" transform="translate(0.000,349.418)" style="opacity: 1;"><rect class="node-rect" width="20" height="15.439765137866459" style="stroke-width: 0.5; stroke: rgb(0, 0, 0); stroke-opacity: 1; fill: rgb(0, 0, 255); fill-opacity: 1;"/><text class="node-label" data-notex="1" x="0" y="0" text-anchor="start" transform="translate(23.25,11.21988256893323)" style="cursor: default; font-family: 'Open Sans', verdana, arial, sans-serif; font-size: 10px; fill: rgb(42, 63, 95); fill-opacity: 1; white-space: pre; text-shadow: white 1px 1px 1px, white -1px -1px 1px, white 1px -1px 1px, white -1px 1px 1px;">Iraq</text></g><g class="sankey-node" transform="translate(420.000,393.128)" style="opacity: 1;"><rect class="node-rect" width="20" height="1.4556893649764788" style="stroke-width: 0.5; stroke: rgb(0, 0, 0); stroke-opacity: 1; fill: rgb(0, 0, 255); fill-opacity: 1;"/><text class="node-label" data-notex="1" x="0" y="0" text-anchor="end" transform="translate(-3.25,4.227844682488239)" style="cursor: default; font-family: 'Open Sans', verdana, arial, sans-serif; font-size: 10px; fill: rgb(42, 63, 95); fill-opacity: 1; white-space: pre; text-shadow: white 1px 1px 1px, white -1px -1px 1px, white 1px -1px 1px, white -1px 1px 1px;">Greece</text></g><g class="sankey-node" transform="translate(0.000,212.759)" style="opacity: 1;"><rect class="node-rect" width="20" height="18.37841114743199" style="stroke-width: 0.5; stroke: rgb(0, 0, 0); stroke-opacity: 1; fill: rgb(0, 0, 255); fill-opacity: 1;"/><text class="node-label" data-notex="1" x="0" y="0" text-anchor="start" transform="translate(23.25,12.689205573715995)" style="cursor: default; font-family: 'Open Sans', verdana, arial, sans-serif; font-size: 10px; fill: rgb(42, 63, 95); fill-opacity: 1; white-space: pre; text-shadow: white 1px 1px 1px, white -1px -1px 1px, white 1px -1px 1px, white -1px 1px 1px;">Kuwait</text></g><g class="sankey-node" transform="translate(0.000,317.562)" style="opacity: 1;"><rect class="node-rect" width="20" height="8.29046804907324" style="stroke-width: 0.5; stroke: rgb(0, 0, 0); stroke-opacity: 1; fill: rgb(0, 0, 255); fill-opacity: 1;"/><text class="node-label" data-notex="1" x="0" y="0" text-anchor="start" transform="translate(23.25,7.64523402453662)" style="cursor: default; font-family: 'Open Sans', verdana, arial, sans-serif; font-size: 10px; fill: rgb(42, 63, 95); fill-opacity: 1; white-space: pre; text-shadow: white 1px 1px 1px, white -1px -1px 1px, white 1px -1px 1px, white -1px 1px 1px;">Mexico</text></g><g class="sankey-node" transform="translate(0.000,489.313)" style="opacity: 1;"><rect class="node-rect" width="20" height="8.643625613958534" style="stroke-width: 0.5; stroke: rgb(0, 0, 0); stroke-opacity: 1; fill: rgb(0, 0, 255); fill-opacity: 1;"/><text class="node-label" data-notex="1" x="0" y="0" text-anchor="start" transform="translate(23.25,7.821812806979267)" style="cursor: default; font-family: 'Open Sans', verdana, arial, sans-serif; font-size: 10px; fill: rgb(42, 63, 95); fill-opacity: 1; white-space: pre; text-shadow: white 1px 1px 1px, white -1px -1px 1px, white 1px -1px 1px, white -1px 1px 1px;">Nigeria</text></g><g class="sankey-node" transform="translate(420.000,495.798)" style="opacity: 1;"><rect class="node-rect" width="20" height="1.9872289672065335" style="stroke-width: 0.5; stroke: rgb(0, 0, 0); stroke-opacity: 1; fill: rgb(0, 0, 255); fill-opacity: 1;"/><text class="node-label" data-notex="1" x="0" y="0" text-anchor="end" transform="translate(-3.25,4.493614483603267)" style="cursor: default; font-family: 'Open Sans', verdana, arial, sans-serif; font-size: 10px; fill: rgb(42, 63, 95); fill-opacity: 1; white-space: pre; text-shadow: white 1px 1px 1px, white -1px -1px 1px, white 1px -1px 1px, white -1px 1px 1px;">Poland</text></g><g class="sankey-node" transform="translate(420.000,576.734)" style="opacity: 1;"><rect class="node-rect" width="20" height="1.235868400823847" style="stroke-width: 0.5; stroke: rgb(0, 0, 0); stroke-opacity: 1; fill: rgb(0, 0, 255); fill-opacity: 1;"/><text class="node-label" data-notex="1" x="0" y="0" text-anchor="end" transform="translate(-3.25,4.1179342004119235)" style="cursor: default; font-family: 'Open Sans', verdana, arial, sans-serif; font-size: 10px; fill: rgb(42, 63, 95); fill-opacity: 1; white-space: pre; text-shadow: white 1px 1px 1px, white -1px -1px 1px, white 1px -1px 1px, white -1px 1px 1px;">Sweden</text></g><g class="sankey-node" transform="translate(0.000,521.523)" style="opacity: 1;"><rect class="node-rect" width="20" height="6.099767172518568" style="stroke-width: 0.5; stroke: rgb(0, 0, 0); stroke-opacity: 1; fill: rgb(0, 0, 255); fill-opacity: 1;"/><text class="node-label" data-notex="1" x="0" y="0" text-anchor="start" transform="translate(23.25,6.549883586259284)" style="cursor: default; font-family: 'Open Sans', verdana, arial, sans-serif; font-size: 10px; fill: rgb(42, 63, 95); fill-opacity: 1; white-space: pre; text-shadow: white 1px 1px 1px, white -1px -1px 1px, white 1px -1px 1px, white -1px 1px 1px;">Norway</text></g><g class="sankey-node" transform="translate(0.000,440.094)" style="opacity: 1;"><rect class="node-rect" width="20" height="25.653413928221312" style="stroke-width: 0.5; stroke: rgb(0, 0, 0); stroke-opacity: 1; fill: rgb(0, 0, 255); fill-opacity: 1;"/><text class="node-label" data-notex="1" x="0" y="0" text-anchor="start" transform="translate(23.25,16.326706964110656)" style="cursor: default; font-family: 'Open Sans', verdana, arial, sans-serif; font-size: 10px; fill: rgb(42, 63, 95); fill-opacity: 1; white-space: pre; text-shadow: white 1px 1px 1px, white -1px -1px 1px, white 1px -1px 1px, white -1px 1px 1px;">Russian Federation</text></g><g class="sankey-node" transform="translate(0.000,388.424)" style="opacity: 1;"><rect class="node-rect" width="20" height="28.10374490955303" style="stroke-width: 0.5; stroke: rgb(0, 0, 0); stroke-opacity: 1; fill: rgb(0, 0, 255); fill-opacity: 1;"/><text class="node-label" data-notex="1" x="0" y="0" text-anchor="start" transform="translate(23.25,17.551872454776515)" style="cursor: default; font-family: 'Open Sans', verdana, arial, sans-serif; font-size: 10px; fill: rgb(42, 63, 95); fill-opacity: 1; white-space: pre; text-shadow: white 1px 1px 1px, white -1px -1px 1px, white 1px -1px 1px, white -1px 1px 1px;">Saudi Arabia</text></g></g></g><defs id="topdefs-44310b"><g class="clips"/></defs><g class="layer-above"><g class="imagelayer"/><g class="shapelayer"/></g><g class="infolayer"><g class="g-gtitle"><text class="gtitle" x="30" y="50" text-anchor="start" dy="0em" style="font-family: 'Open Sans', verdana, arial, sans-serif; font-size: 14px; fill: rgb(42, 63, 95); opacity: 1; font-weight: normal; white-space: pre;">Crude Oil</text></g><g class="first-render"/></g></svg>